<?xml version="1.0" encoding="UTF-8"?>
<svg width="35px" height="35px" viewBox="0 0 35 35" version="1.1" xmlns="http://www.w3.org/2000/svg" xmlns:xlink="http://www.w3.org/1999/xlink">
    <!-- Generator: Sketch 64 (93537) - https://sketch.com -->
    <title>1</title>
    <desc>Created with Sketch.</desc>
    <defs>
        <polygon id="path-1" points="0.03276 0.02184 34.944 0.02184 34.944 34.944 0.03276 34.944"></polygon>
    </defs>
    <g id="Wireframes" stroke="none" stroke-width="1" fill="none" fill-rule="evenodd">
        <g id="1">
            <g id="Group-3">
                <g id="Fill-1-Clipped">
                    <mask id="mask-2" fill="white">
                        <use xlink:href="#path-1"></use>
                    </mask>
                    <g id="path-1"></g>
                    <path d="M31.713864,17.473638 C31.713864,25.325664 25.325118,31.713864 17.472546,31.713864 C9.618336,31.713864 3.229044,25.325664 3.229044,17.473638 C3.229044,9.618882 9.618336,3.228498 17.472546,3.228498 C25.325118,3.228498 31.713864,9.618882 31.713864,17.473638 Z M17.472546,0 C7.83783,0 0,7.838922 0,17.473638 C0,27.107262 7.83783,34.944546 17.472546,34.944546 C27.106716,34.944546 34.944,27.107262 34.944,17.473638 C34.944,7.838922 27.106716,0 17.472546,0 L17.472546,0 Z" id="Fill-1" fill="#00B8DE" fill-rule="nonzero" mask="url(#mask-2)"></path>
                </g>
            </g>
            <path d="M12.558,14.4880887 C12.558,19.6393843 20.1169235,17.636341 20.1169235,20.894682 C20.1169235,22.2357631 19.1208845,22.6546722 17.3004402,22.6546722 C15.2858527,22.6546722 13.2065509,22.0141558 13.2065509,22.0141558 C13.2065509,22.0141558 12.8829788,22.3672977 12.7085313,23.0278301 C12.5368975,23.7126679 12.6227144,24.0843962 12.6227144,24.0843962 C12.6227144,24.0843962 14.2687111,24.8550174 16.7602156,24.9636764 L16.5646656,27.6730034 C16.5646656,27.6730034 16.9979707,27.846 17.6915403,27.846 C18.4259081,27.846 18.7959056,27.6730034 18.7959056,27.6730034 L18.5792531,24.9222144 C21.5673702,24.6334102 22.932,23.1822403 22.932,20.7173962 C22.932,15.3702285 15.2647502,16.9972544 15.2647502,14.2021439 C15.2647502,12.9053843 16.3916249,12.4635996 18.2345785,12.4635996 C19.9649854,12.4635996 21.3071058,12.9268301 21.3071058,12.9268301 C21.3071058,12.9268301 21.6996127,12.5951342 21.8909422,12.0017987 C22.0878991,11.384158 22.0653897,10.902341 22.0653897,10.902341 C22.0653897,10.902341 20.5713312,10.4376807 18.6003556,10.3290217 L18.7959056,7.81985605 C18.7959056,7.81985605 18.383703,7.644 17.6676241,7.644 C16.9979707,7.644 16.5646656,7.81985605 16.5646656,7.81985605 L16.7602156,10.3719134 C13.9873442,10.6592879 12.558,12.0890119 12.558,14.4880887 Z" id="Fill-4" fill="#00B8DE" fill-rule="nonzero"></path>
        </g>
    </g>
</svg>