<?xml version="1.0" encoding="UTF-8"?>
<svg width="35px" height="35px" viewBox="0 0 35 35" version="1.1" xmlns="http://www.w3.org/2000/svg" xmlns:xlink="http://www.w3.org/1999/xlink">
    <!-- Generator: Sketch 58 (84663) - https://sketch.com -->
    <title>COP_IC_WIFI_MARSDEN_R_POS</title>
    <desc>Created with Sketch.</desc>
    <defs>
        <polygon id="path-1" points="0.0324 0.0216 34.56 0.0216 34.56 34.56 0.0324 34.56"></polygon>
    </defs>
    <g id="Desktop" stroke="none" stroke-width="1" fill="none" fill-rule="evenodd">
        <g id="Home" transform="translate(-953.000000, -642.000000)">
            <g id="COP_IC_WIFI_MARSDEN_R_POS" transform="translate(953.000000, 642.000000)">
                <mask id="mask-2" fill="white">
                    <use xlink:href="#path-1"></use>
                </mask>
                <g id="Clip-2"></g>
                <path d="M13.62636,22.11138 L15.45372,23.9382 C16.46244,22.92894 18.09864,22.92894 19.1079,23.9382 L20.93472,22.11138 C18.91566,20.0934 15.64488,20.0934 13.62636,22.11138 Z M9.97272,18.45774 L11.80008,20.28456 C14.82624,17.25732 19.73376,17.25678 22.76046,20.28456 L24.58728,18.45774 C20.55186,14.42232 14.0076,14.42232 9.97272,18.45774 Z M28.24146,14.8041 L26.4141,16.63038 C21.36888,11.58624 13.19004,11.58624 8.14536,16.63038 L6.31854,14.8041 C12.3714,8.7507 22.18698,8.7507 28.24146,14.8041 L28.24146,14.8041 Z" id="Fill-1" fill="#002B49" mask="url(#mask-2)"></path>
                <path d="M31.36536,17.28162 C31.36536,25.04736 25.04682,31.36536 17.28054,31.36536 C9.51264,31.36536 3.19356,25.04736 3.19356,17.28162 C3.19356,9.51318 9.51264,3.19302 17.28054,3.19302 C25.04682,3.19302 31.36536,9.51318 31.36536,17.28162 Z M17.28054,0 C7.7517,0 0,7.75278 0,17.28162 C0,26.80938 7.7517,34.56054 17.28054,34.56054 C26.80884,34.56054 34.56,26.80938 34.56,17.28162 C34.56,7.75278 26.80884,0 17.28054,0 L17.28054,0 Z" id="Fill-3" fill="#002B49" mask="url(#mask-2)"></path>
            </g>
        </g>
    </g>
</svg>