<?xml version="1.0" encoding="UTF-8"?>
<svg width="35px" height="35px" viewBox="0 0 35 35" version="1.1" xmlns="http://www.w3.org/2000/svg" xmlns:xlink="http://www.w3.org/1999/xlink">
    <!-- Generator: Sketch 58 (84663) - https://sketch.com -->
    <title>COP_IC_LUGGAGE_MARSDEN_R_POS</title>
    <desc>Created with Sketch.</desc>
    <defs>
        <polygon id="path-1" points="0.0324 0.0216 34.56 0.0216 34.56 34.56 0.0324 34.56"></polygon>
    </defs>
    <g id="Desktop" stroke="none" stroke-width="1" fill="none" fill-rule="evenodd">
        <g id="Home" transform="translate(-953.000000, -282.000000)">
            <g id="COP_IC_LUGGAGE_MARSDEN_R_POS" transform="translate(953.000000, 282.000000)">
                <mask id="mask-2" fill="white">
                    <use xlink:href="#path-1"></use>
                </mask>
                <g id="Clip-2"></g>
                <path d="M21.36294,11.0592 L23.09634,11.0592 L23.09634,10.75086 L21.36294,10.75086 L21.36294,11.0592 Z M11.52306,11.0592 L13.25646,11.0592 L13.25646,10.75086 L11.52306,10.75086 L11.52306,11.0592 Z M26.45406,13.24836 L26.45406,22.50072 C26.45406,23.70438 25.47936,24.67908 24.27678,24.67908 L23.09634,24.67908 L23.09634,11.07054 L24.27678,11.07054 C25.47936,11.07054 26.45406,12.04524 26.45406,13.24836 Z M10.34316,11.07054 L11.52306,11.07054 L11.52306,24.67908 L10.34316,24.67908 C9.14004,24.67908 8.1648,23.70438 8.1648,22.50072 L8.1648,13.24836 C8.1648,12.04524 9.14004,11.07054 10.34316,11.07054 Z M19.76292,11.07054 L14.8932,11.07054 L14.8932,10.70712 C14.8932,9.95922 15.5304,9.35064 16.31232,9.35064 L18.3438,9.35064 C19.12572,9.35064 19.76292,9.95922 19.76292,10.70712 L19.76292,11.07054 Z M20.70036,10.70712 C20.70036,9.4419 19.64358,8.4132 18.3438,8.4132 L16.31232,8.4132 C15.01254,8.4132 13.95576,9.4419 13.95576,10.70712 L13.95576,11.07054 L13.25646,11.07054 L13.25646,24.67908 L21.36294,24.67908 L21.36294,11.07054 L20.70036,11.07054 L20.70036,10.70712 L20.70036,10.70712 Z" id="Fill-1" fill="#002B49" mask="url(#mask-2)"></path>
                <path d="M31.36536,17.28162 C31.36536,25.04736 25.04682,31.36536 17.28054,31.36536 C9.51264,31.36536 3.19356,25.04736 3.19356,17.28162 C3.19356,9.51318 9.51264,3.19302 17.28054,3.19302 C25.04682,3.19302 31.36536,9.51318 31.36536,17.28162 Z M17.28054,0 C7.7517,0 0,7.75278 0,17.28162 C0,26.80938 7.7517,34.56054 17.28054,34.56054 C26.80884,34.56054 34.56,26.80938 34.56,17.28162 C34.56,7.75278 26.80884,0 17.28054,0 L17.28054,0 Z" id="Fill-3" fill="#002B49" mask="url(#mask-2)"></path>
            </g>
        </g>
    </g>
</svg>