<?xml version="1.0" encoding="UTF-8"?>
<svg width="35px" height="35px" viewBox="0 0 35 35" version="1.1" xmlns="http://www.w3.org/2000/svg" xmlns:xlink="http://www.w3.org/1999/xlink">
    <!-- Generator: Sketch 64 (93537) - https://sketch.com -->
    <title>3</title>
    <desc>Created with Sketch.</desc>
    <defs>
        <polygon id="path-1" points="0.03276 0.02184 34.944 0.02184 34.944 34.944 0.03276 34.944"></polygon>
    </defs>
    <g id="Wireframes" stroke="none" stroke-width="1" fill="none" fill-rule="evenodd">
        <g id="3">
            <g id="Group-3">
                <g id="Fill-1-Clipped">
                    <mask id="mask-2" fill="white">
                        <use xlink:href="#path-1"></use>
                    </mask>
                    <g id="path-1"></g>
                    <path d="M31.713864,17.473638 C31.713864,25.325664 25.325118,31.713864 17.472546,31.713864 C9.618336,31.713864 3.229044,25.325664 3.229044,17.473638 C3.229044,9.618882 9.618336,3.228498 17.472546,3.228498 C25.325118,3.228498 31.713864,9.618882 31.713864,17.473638 Z M17.472546,0 C7.83783,0 0,7.838922 0,17.473638 C0,27.107262 7.83783,34.944546 17.472546,34.944546 C27.106716,34.944546 34.944,27.107262 34.944,17.473638 C34.944,7.838922 27.106716,0 17.472546,0 L17.472546,0 Z" id="Fill-1" fill="#00B8DE" fill-rule="nonzero" mask="url(#mask-2)"></path>
                </g>
            </g>
            <path d="M25.8282711,12.2260523 C25.71881,12.1282456 25.571002,12.08087 25.422384,12.0900403 C25.280166,12.0999736 22.8529654,12.284126 20.2921374,13.2262805 C22.2328646,11.8929011 24.4109367,11.1915096 24.4428448,11.1815333 C24.7248836,11.0921321 24.8790855,10.8017694 24.7856112,10.5312751 C24.6921308,10.2623067 24.3885192,10.1148337 24.1056827,10.204229 C23.9482839,10.2538972 21.073597,11.1769559 18.8451469,13.0009143 C20.0755715,10.9774889 22.2073565,9.99785686 22.243971,9.98181656 C22.5132261,9.86185075 22.6298747,9.55620085 22.5052287,9.29869533 C22.3805867,9.04042692 22.0601928,8.92810568 21.7909377,9.0480754 C21.6439253,9.11302493 18.7613064,10.4250179 17.5003236,13.2606107 C16.2395249,10.4249984 13.356773,9.11301906 13.2105277,9.0480754 C12.9412726,8.92810959 12.6208827,9.04043474 12.4962367,9.29869533 C12.370797,9.55620085 12.4882453,9.86260973 12.7574943,9.98257945 C12.7862566,9.99557014 14.9299027,10.9698209 16.1604092,13.0069587 C13.9313435,11.1799684 11.0516392,10.2546777 10.8943488,10.2049919 C10.6115123,10.1148259 10.3078946,10.2623008 10.2144203,10.532038 C10.1209399,10.8017694 10.2743441,11.0929009 10.5571867,11.1822962 C10.5891459,11.1922294 12.7680485,11.8936836 14.7078961,13.2270434 C12.1478863,12.284128 9.72062231,12.1007404 9.57846772,12.0908032 C9.42985788,12.0816329 9.28204902,12.1297733 9.17257976,12.2268152 C9.06232098,12.3246219 9,12.4606319 9,12.6042904 L9,23.351488 C9,23.6319194 9.23489256,23.8603959 9.52812045,23.8664991 C13.8218026,23.9482596 17.1840143,25.9044002 17.2175587,25.9243528 C17.2207536,25.9266452 17.2247482,25.9274092 17.2295426,25.9289376 C17.2327396,25.9312298 17.2351347,25.9335221 17.2383317,25.9358145 C17.2615018,25.9488044 17.2870692,25.9549174 17.3118389,25.9640865 C17.3278175,25.9701995 17.3437981,25.9786048 17.3613762,25.9824253 C17.4053193,25.9938871 17.450862,26 17.4964046,26 L17.5003993,26 L17.5043939,26 C17.5499366,26 17.5954772,25.993123 17.6394224,25.9824253 C17.6562007,25.9786048 17.6713816,25.9694354 17.6881599,25.9640865 C17.7129275,25.9549172 17.7384949,25.9480402 17.7624648,25.9358145 C17.7656618,25.9342864 17.768059,25.9312298 17.7712539,25.9289376 C17.7744508,25.9266452 17.7792432,25.9258811 17.7832378,25.9243528 C17.8167945,25.9044863 21.1789939,23.9482655 25.4726781,23.8664991 C25.7651074,23.861151 26,23.6319194 26,23.351488 L26,12.603508 C26,12.4606182 25.9384788,12.3238395 25.82822,12.2260327 L25.8282711,12.2260523 Z M10.0771317,13.1789049 C11.3786746,13.3439537 14.6072609,13.8979407 16.9619136,15.5133556 L16.9619136,24.6201389 C15.719503,24.0271955 13.1812152,23.0147395 10.0763135,22.8550407 L10.0771317,13.1789049 Z M24.9237977,22.8549233 C21.8188961,23.0146241 19.2813856,24.0270781 18.0390158,24.6200216 L18.0390158,15.5132382 C20.3944867,13.8979016 23.6231344,13.3438853 24.9237977,13.1787875 L24.9237977,22.8549233 Z" id="Fill-1" stroke="#00B8DE" fill="#00B8DE" fill-rule="nonzero"></path>
        </g>
    </g>
</svg>