<?xml version="1.0" encoding="UTF-8"?>
<svg width="35px" height="35px" viewBox="0 0 35 35" version="1.1" xmlns="http://www.w3.org/2000/svg" xmlns:xlink="http://www.w3.org/1999/xlink">
    <!-- Generator: Sketch 64 (93537) - https://sketch.com -->
    <title>4</title>
    <desc>Created with Sketch.</desc>
    <defs>
        <polygon id="path-1" points="0.0324 0.0216 34.56 0.0216 34.56 34.56 0.0324 34.56"></polygon>
    </defs>
    <g id="Wireframes" stroke="none" stroke-width="1" fill="none" fill-rule="evenodd">
        <g id="4">
            <g id="Fill-1-Clipped">
                <mask id="mask-2" fill="white">
                    <use xlink:href="#path-1"></use>
                </mask>
                <g id="path-1"></g>
                <path d="M23.925583,8 L11.0744981,8 C10.4869782,8 10,8.47968201 10,9.06016444 L10,25.9398356 C10,26.5195182 10.4861674,27 11.0744981,27 L16.3241495,27 L16.3241495,22.7795819 C16.3241495,22.5998932 16.4658848,22.4592606 16.6488016,22.4592606 L18.3511984,22.4592606 C18.5333166,22.4592606 18.6758505,22.5991052 18.6758505,22.7795819 L18.6758505,27 L23.9255019,27 C24.5130218,27 25,26.520318 25,25.9398356 L25,9.06016444 C24.9794133,8.47970201 24.5138326,8 23.9255019,8 L23.925583,8 Z M14.6218337,24.4602606 C14.6218337,24.6399577 14.4800984,24.7805903 14.2971816,24.7805903 L12.5947848,24.7805903 C12.4126666,24.7805903 12.2701327,24.6407457 12.2701327,24.4602606 L12.2701327,22.7805819 C12.2701327,22.6008932 12.411868,22.4602606 12.5947848,22.4602606 L14.2971816,22.4602606 C14.4792998,22.4602606 14.6218337,22.6001052 14.6218337,22.7805819 L14.6218337,24.4602606 Z M14.6218337,20.4602438 C14.6218337,20.639941 14.4800984,20.7805735 14.2971816,20.7805735 L12.5947848,20.7805735 C12.4126666,20.7805735 12.2701327,20.640729 12.2701327,20.4602438 L12.2701327,18.7805652 C12.2701327,18.6008764 12.411868,18.4602438 12.5947848,18.4602438 L14.2971816,18.4602438 C14.4792998,18.4602438 14.6218337,18.6000884 14.6218337,18.7805652 L14.6218337,20.4602438 Z M14.6218337,16.439827 C14.6218337,16.6195241 14.4800984,16.7601567 14.2971816,16.7601567 L12.5947848,16.7601567 C12.4126666,16.7601567 12.2701327,16.6203121 12.2701327,16.439827 L12.2701327,14.7601483 C12.2701327,14.5804596 12.411868,14.439827 12.5947848,14.439827 L14.2971816,14.439827 C14.4792998,14.439827 14.6218337,14.5796716 14.6218337,14.7601483 L14.6218337,16.439827 Z M14.6218337,12.4398102 C14.6218337,12.6195074 14.4800984,12.7601399 14.2971816,12.7601399 L12.5947848,12.7601399 C12.4126666,12.7601399 12.2701327,12.6202954 12.2701327,12.4398102 L12.2701327,10.7601316 C12.2701327,10.5804428 12.411868,10.4398102 12.5947848,10.4398102 L14.2971816,10.4398102 C14.4792998,10.4398102 14.6218337,10.5796548 14.6218337,10.7601316 L14.6218337,12.4398102 Z M18.6759316,20.4602438 C18.6759316,20.639941 18.5341963,20.7805735 18.3512795,20.7805735 L16.6488827,20.7805735 C16.4667645,20.7805735 16.3242305,20.640729 16.3242305,20.4602438 L16.3242305,18.7805652 C16.3242305,18.6008764 16.4659658,18.4602438 16.6488827,18.4602438 L18.3512795,18.4602438 C18.5333977,18.4602438 18.6759316,18.6000884 18.6759316,18.7805652 L18.6759316,20.4602438 Z M18.6759316,16.4398374 C18.6759316,16.6195261 18.5341963,16.7601587 18.3512795,16.7601587 L16.6488827,16.7601587 C16.4667645,16.7601587 16.3242305,16.6203141 16.3242305,16.4398374 L16.3242305,14.7601483 C16.3242305,14.5804596 16.4659658,14.439827 16.6488827,14.439827 L18.3512795,14.439827 C18.5333977,14.439827 18.6759316,14.5796716 18.6759316,14.7601483 L18.6759316,16.4398374 Z M18.6759316,12.4398206 C18.6759316,12.6195094 18.5341963,12.7601419 18.3512795,12.7601419 L16.6488827,12.7601419 C16.4667645,12.7601419 16.3242305,12.6202974 16.3242305,12.4398206 L16.3242305,10.7601316 C16.3242305,10.5804428 16.4659658,10.4398102 16.6488827,10.4398102 L18.3512795,10.4398102 C18.5333977,10.4398102 18.6759316,10.5796548 18.6759316,10.7601316 L18.6759316,12.4398206 Z M22.7498946,24.4602626 C22.7498946,24.6399597 22.6081593,24.7805923 22.4252424,24.7805923 L20.7228457,24.7805923 C20.5407275,24.7805923 20.3981935,24.6407477 20.3981935,24.4602626 L20.3981935,22.7805839 C20.3981935,22.6008952 20.5399288,22.4602626 20.7228457,22.4602626 L22.4252424,22.4602626 C22.6073606,22.4602626 22.7498946,22.6001072 22.7498946,22.7805839 L22.7498946,24.4602626 Z M22.7498946,20.4602458 C22.7498946,20.639943 22.6081593,20.7805755 22.4252424,20.7805755 L20.7228457,20.7805755 C20.5407275,20.7805755 20.3981935,20.640731 20.3981935,20.4602458 L20.3981935,18.7805672 C20.3981935,18.6008784 20.5399288,18.4602458 20.7228457,18.4602458 L22.4252424,18.4602458 C22.6073606,18.4602458 22.7498946,18.6000904 22.7498946,18.7805672 L22.7498946,20.4602458 Z M22.7498946,16.439829 C22.7498946,16.6195261 22.6081593,16.7601587 22.4252424,16.7601587 L20.7228457,16.7601587 C20.5407275,16.7601587 20.3981935,16.6203141 20.3981935,16.439829 L20.3981935,14.7601503 C20.3981935,14.5804616 20.5399288,14.439829 20.7228457,14.439829 L22.4252424,14.439829 C22.6073606,14.439829 22.7498946,14.5796736 22.7498946,14.7601503 L22.7498946,16.439829 Z M22.7498946,12.4398122 C22.7498946,12.6195094 22.6081593,12.7601419 22.4252424,12.7601419 L20.7228457,12.7601419 C20.5407275,12.7601419 20.3981935,12.6202974 20.3981935,12.4398122 L20.3981935,10.7601336 C20.3981935,10.5804448 20.5399288,10.4398122 20.7228457,10.4398122 L22.4252424,10.4398122 C22.6073606,10.4398122 22.7498946,10.5796568 22.7498946,10.7601336 L22.7498946,12.4398122 Z" id="Fill-1" fill="#00B8DE" fill-rule="nonzero" mask="url(#mask-2)"></path>
            </g>
            <g id="Fill-3-Clipped" fill="#00B8DE" fill-rule="nonzero">
                <path d="M31.36536,17.28162 C31.36536,25.04736 25.04682,31.36536 17.28054,31.36536 C9.51264,31.36536 3.19356,25.04736 3.19356,17.28162 C3.19356,9.51318 9.51264,3.19302 17.28054,3.19302 C25.04682,3.19302 31.36536,9.51318 31.36536,17.28162 Z M17.28054,0 C7.7517,0 0,7.75278 0,17.28162 C0,26.80938 7.7517,34.56054 17.28054,34.56054 C26.80884,34.56054 34.56,26.80938 34.56,17.28162 C34.56,7.75278 26.80884,0 17.28054,0 L17.28054,0 Z" id="Fill-3"></path>
            </g>
        </g>
    </g>
</svg>