<?xml version="1.0" encoding="UTF-8"?>
<svg width="35px" height="35px" viewBox="0 0 35 35" version="1.1" xmlns="http://www.w3.org/2000/svg" xmlns:xlink="http://www.w3.org/1999/xlink">
    <!-- Generator: Sketch 58 (84663) - https://sketch.com -->
    <title>COP_IC_PARKING_MARSDEN_R_POS</title>
    <desc>Created with Sketch.</desc>
    <defs>
        <polygon id="path-1" points="0.0324 0.0216 34.56 0.0216 34.56 34.56 0.0324 34.56"></polygon>
    </defs>
    <g id="Desktop" stroke="none" stroke-width="1" fill="none" fill-rule="evenodd">
        <g id="Home" transform="translate(-953.000000, -417.000000)">
            <g id="COP_IC_PARKING_MARSDEN_R_POS" transform="translate(953.000000, 417.000000)">
                <g id="Group-3">
                    <mask id="mask-2" fill="white">
                        <use xlink:href="#path-1"></use>
                    </mask>
                    <g id="Clip-2"></g>
                    <path d="M31.36536,17.28162 C31.36536,25.04736 25.04682,31.36536 17.28054,31.36536 C9.51264,31.36536 3.19356,25.04736 3.19356,17.28162 C3.19356,9.51318 9.51264,3.19302 17.28054,3.19302 C25.04682,3.19302 31.36536,9.51318 31.36536,17.28162 Z M17.28054,0 C7.7517,0 0,7.75278 0,17.28162 C0,26.80938 7.7517,34.56054 17.28054,34.56054 C26.80884,34.56054 34.56,26.80938 34.56,17.28162 C34.56,7.75278 26.80884,0 17.28054,0 L17.28054,0 Z" id="Fill-1" fill="#002B49" mask="url(#mask-2)"></path>
                </g>
                <path d="M17.57538,16.49268 C19.32714,16.49268 20.29158,15.7194 20.29158,14.31594 C20.29158,12.94704 19.35306,12.16296 17.71578,12.16296 L15.77394,12.16296 L15.77394,16.49268 L17.57538,16.49268 Z M11.7477,25.89462 L11.7477,8.4645 L18.3033,8.4645 C22.22964,8.4645 24.48252,10.62288 24.48252,14.3856 C24.48252,18.07434 22.11894,20.19006 17.99766,20.19006 L15.77394,20.19006 L15.77394,25.89462 L11.7477,25.89462 L11.7477,25.89462 Z" id="Fill-4" fill="#002B49"></path>
            </g>
        </g>
    </g>
</svg>