<?xml version="1.0" encoding="UTF-8"?>
<svg width="35px" height="35px" viewBox="0 0 35 35" version="1.1" xmlns="http://www.w3.org/2000/svg" xmlns:xlink="http://www.w3.org/1999/xlink">
    <!-- Generator: Sketch 58 (84663) - https://sketch.com -->
    <title>COP_IC_GARBAGE_MARSDEN_R_POS</title>
    <desc>Created with Sketch.</desc>
    <defs>
        <polygon id="path-1" points="0.0324 0.0216 34.56 0.0216 34.56 34.56 0.0324 34.56"></polygon>
    </defs>
    <g id="Desktop" stroke="none" stroke-width="1" fill="none" fill-rule="evenodd">
        <g id="Home" transform="translate(-953.000000, -462.000000)">
            <g id="COP_IC_GARBAGE_MARSDEN_R_POS" transform="translate(953.000000, 462.000000)">
                <g id="Group-3">
                    <mask id="mask-2" fill="white">
                        <use xlink:href="#path-1"></use>
                    </mask>
                    <g id="Clip-2"></g>
                    <path d="M31.36536,17.28162 C31.36536,25.04736 25.04682,31.36536 17.28054,31.36536 C9.51264,31.36536 3.19356,25.04736 3.19356,17.28162 C3.19356,9.51318 9.51264,3.19302 17.28054,3.19302 C25.04682,3.19302 31.36536,9.51318 31.36536,17.28162 Z M17.28054,0 C7.7517,0 0,7.75278 0,17.28162 C0,26.80938 7.7517,34.56054 17.28054,34.56054 C26.80884,34.56054 34.56,26.80938 34.56,17.28162 C34.56,7.75278 26.80884,0 17.28054,0 L17.28054,0 Z" id="Fill-1" fill="#002B49" mask="url(#mask-2)"></path>
                </g>
                <path d="M25,15.3220499 C25,11.2644627 21.5624,8 17.5,8 C13.3438,8 10,11.2644627 10,15.3220499 L10,15.6271354 C10,15.6576439 10.125,16.7254428 10.25,17.1830807 C11.125,20.7525313 14.0938,25.4679379 17.5,28 C20.9062,25.4677426 23.875,20.7525313 24.75,17.1830807 C24.875,16.7254428 25,15.688172 25,15.6271354 L25,15.3220499 Z M17.5,18.3729041 C15.78124,18.3729041 14.375,17.0000295 14.375,15.3220499 C14.375,13.6440704 15.78124,12.2711958 17.5,12.2711958 C19.21876,12.2711958 20.625,13.6440704 20.625,15.3220499 C20.625,17.0000295 19.21876,18.3729041 17.5,18.3729041 Z" id="Fill-1" fill="#002B49"></path>
            </g>
        </g>
    </g>
</svg>