<?xml version="1.0" encoding="UTF-8"?>
<svg width="35px" height="35px" viewBox="0 0 35 35" version="1.1" xmlns="http://www.w3.org/2000/svg" xmlns:xlink="http://www.w3.org/1999/xlink">
    <!-- Generator: Sketch 64 (93537) - https://sketch.com -->
    <title>7</title>
    <desc>Created with Sketch.</desc>
    <defs>
        <polygon id="path-1" points="0.0324 0.0216 34.56 0.0216 34.56 34.56 0.0324 34.56"></polygon>
    </defs>
    <g id="Wireframes" stroke="none" stroke-width="1" fill="none" fill-rule="evenodd">
        <g id="7">
            <g id="Fill-1-Clipped">
                <mask id="mask-2" fill="white">
                    <use xlink:href="#path-1"></use>
                </mask>
                <g id="path-1"></g>
                <path d="M20.3715,27.5562 C19.11384,27.5562 17.95338,27.00648 16.85178,25.92324 C15.29982,24.38964 14.01948,21.8916 12.97782,19.64952 C11.97504,17.50572 11.38428,15.95214 11.01222,14.59512 C10.75518,13.67118 10.63746,12.82392 10.63746,12.05874 C10.63746,11.36916 10.73628,10.74114 10.95174,10.19034 C11.38428,9.04824 12.21102,8.14374 13.4703,7.57242 L14.1183,7.27704 C14.35482,7.16202 14.61132,7.12152 14.86728,7.12152 C15.51474,7.12152 16.16436,7.47468 16.4781,8.14374 L17.77572,10.93716 C17.89344,11.1726 17.95338,11.42748 17.95338,11.68506 C17.95338,12.31416 17.5608,13.00158 16.91172,13.2975 L16.02558,13.70898 C15.90786,13.77 15.76962,13.92714 15.76962,14.1048 C15.76962,14.1831 15.76962,14.24142 15.8085,14.31918 L18.87732,20.90934 C18.93618,21.04704 19.09332,21.16422 19.29042,21.16422 C19.35036,21.16422 19.42812,21.16422 19.48644,21.1248 L20.3715,20.71332 C20.60856,20.59344 20.86344,20.5551 21.11832,20.5551 C21.74796,20.5551 22.4559,20.90934 22.75182,21.5784 L24.04998,24.36912 C24.16824,24.60618 24.20604,24.8616 24.20604,25.1181 C24.20604,25.78608 23.83344,26.43678 23.18382,26.73054 L22.55472,27.02646 C21.80736,27.37962 21.07998,27.5562 20.3715,27.5562" id="Fill-1" fill="#00B8DE" fill-rule="nonzero" mask="url(#mask-2)"></path>
            </g>
            <g id="Fill-3-Clipped" fill="#00B8DE" fill-rule="nonzero">
                <path d="M31.36536,17.28162 C31.36536,25.04736 25.04682,31.36536 17.28054,31.36536 C9.51264,31.36536 3.19356,25.04736 3.19356,17.28162 C3.19356,9.51318 9.51264,3.19302 17.28054,3.19302 C25.04682,3.19302 31.36536,9.51318 31.36536,17.28162 Z M17.28054,0 C7.7517,0 0,7.75278 0,17.28162 C0,26.80938 7.7517,34.56054 17.28054,34.56054 C26.80884,34.56054 34.56,26.80938 34.56,17.28162 C34.56,7.75278 26.80884,0 17.28054,0 L17.28054,0 Z" id="Fill-3"></path>
            </g>
        </g>
    </g>
</svg>