<?xml version="1.0" encoding="UTF-8"?>
<svg width="35px" height="35px" viewBox="0 0 35 35" version="1.1" xmlns="http://www.w3.org/2000/svg" xmlns:xlink="http://www.w3.org/1999/xlink">
    <!-- Generator: Sketch 58 (84663) - https://sketch.com -->
    <title>COP_IC_GARBAGE_MARSDEN_R_POS</title>
    <desc>Created with Sketch.</desc>
    <defs>
        <polygon id="path-1" points="0.0324 0.0216 34.56 0.0216 34.56 34.56 0.0324 34.56"></polygon>
    </defs>
    <g id="Desktop" stroke="none" stroke-width="1" fill="none" fill-rule="evenodd">
        <g id="Home" transform="translate(-953.000000, -552.000000)">
            <g id="COP_IC_GARBAGE_MARSDEN_R_POS" transform="translate(953.000000, 552.000000)">
                <g id="Group-3">
                    <mask id="mask-2" fill="white">
                        <use xlink:href="#path-1"></use>
                    </mask>
                    <g id="Clip-2"></g>
                    <path d="M31.36536,17.28162 C31.36536,25.04736 25.04682,31.36536 17.28054,31.36536 C9.51264,31.36536 3.19356,25.04736 3.19356,17.28162 C3.19356,9.51318 9.51264,3.19302 17.28054,3.19302 C25.04682,3.19302 31.36536,9.51318 31.36536,17.28162 Z M17.28054,0 C7.7517,0 0,7.75278 0,17.28162 C0,26.80938 7.7517,34.56054 17.28054,34.56054 C26.80884,34.56054 34.56,26.80938 34.56,17.28162 C34.56,7.75278 26.80884,0 17.28054,0 L17.28054,0 Z" id="Fill-1" fill="#002B49" mask="url(#mask-2)"></path>
                </g>
                <path d="M23.02614,10.23624 L19.68462,9.87822 L19.78452,8.94834 C19.79802,8.82252 19.70568,8.70912 19.58094,8.69562 L15.99912,8.31222 C15.87384,8.29926 15.7599,8.39052 15.7464,8.51634 L15.6465,9.44622 L12.30606,9.08874 C11.94696,9.04932 11.62188,9.3123 11.58354,9.67086 L11.3832,11.54466 L23.40792,12.83202 L23.60826,10.95768 C23.6466,10.59912 23.3847,10.27404 23.02614,10.23624 Z M11.34324,13.01184 L23.39712,13.01184 L22.1346,25.48908 C22.09788,25.84818 21.7728,26.14194 21.41208,26.14194 L13.32882,26.14194 C12.9681,26.14194 12.64248,25.84818 12.60684,25.48908 L11.34324,13.01184 L11.34324,13.01184 Z" id="Fill-4" fill="#002B49"></path>
            </g>
        </g>
    </g>
</svg>