<?xml version="1.0" encoding="UTF-8"?>
<svg width="35px" height="35px" viewBox="0 0 35 35" version="1.1" xmlns="http://www.w3.org/2000/svg" xmlns:xlink="http://www.w3.org/1999/xlink">
    <!-- Generator: Sketch 64 (93537) - https://sketch.com -->
    <title>9</title>
    <desc>Created with Sketch.</desc>
    <defs>
        <polygon id="path-1" points="0.0324 0.0216 34.56 0.0216 34.56 34.56 0.0324 34.56"></polygon>
    </defs>
    <g id="Wireframes" stroke="none" stroke-width="1" fill="none" fill-rule="evenodd">
        <g id="9">
            <g id="Fill-1-Clipped">
                <mask id="mask-2" fill="white">
                    <use xlink:href="#path-1"></use>
                </mask>
                <g id="path-1"></g>
                <path d="M22.26096,17.52354 L22.26096,14.99742 L23.85882,14.99742 L25.542,17.52354 L22.26096,17.52354 Z M23.59422,22.43592 C23.12982,22.43592 22.7529,22.05846 22.7529,21.59514 C22.7529,21.13074 23.12982,20.75328 23.59422,20.75328 C24.05808,20.75328 24.43554,21.13074 24.43554,21.59514 C24.43554,22.05846 24.05808,22.43592 23.59422,22.43592 Z M13.22406,21.66318 C13.22298,21.67938 13.21812,21.69558 13.21596,21.71178 C13.21218,21.73338 13.20894,21.75336 13.20462,21.77388 C13.12146,22.1643 12.77748,22.45914 12.36222,22.45914 C12.123,22.45914 11.90862,22.36086 11.75256,22.20318 C11.72718,22.17834 11.70342,22.15188 11.68128,22.1238 C11.67318,22.11462 11.66616,22.10544 11.65968,22.09518 C11.55492,21.95262 11.49336,21.77604 11.49336,21.58542 C11.49336,21.10644 11.88,20.71926 12.35898,20.71926 C12.83742,20.71926 13.22514,21.10644 13.22514,21.58542 C13.22514,21.61134 13.22406,21.63726 13.22136,21.66318 L13.22406,21.66318 Z M26.8542,17.48358 L24.39126,13.78782 C24.31026,13.66632 24.1731,13.59288 24.02676,13.59288 L22.25988,13.59288 L22.25988,11.421 C22.25988,10.9539 21.87918,10.57266 21.411,10.57266 L8.48016,10.57266 C8.01252,10.57266 7.63182,10.9539 7.63182,11.421 L7.63182,20.8251 C7.63182,21.29328 8.01252,21.67398 8.48016,21.67398 L10.36584,21.67398 C10.40796,22.74156 11.28438,23.5953 12.36222,23.5953 C13.44114,23.5953 14.31648,22.74156 14.3586,21.67398 L21.411,21.67398 C21.47634,21.67398 21.5379,21.66588 21.59676,21.65184 C21.62754,22.73022 22.5099,23.5953 23.59422,23.5953 C24.69906,23.5953 25.59438,22.69998 25.59438,21.59514 L26.49186,21.59514 C26.7327,21.59514 26.92818,21.39858 26.92818,21.15774 L26.92818,17.72604 C26.92818,17.63964 26.9028,17.5554 26.8542,17.48358 L26.8542,17.48358 Z" id="Fill-1" fill="#00B8DE" fill-rule="nonzero" mask="url(#mask-2)"></path>
            </g>
            <g id="Fill-3-Clipped" fill="#00B8DE" fill-rule="nonzero">
                <path d="M31.36536,17.28162 C31.36536,25.04736 25.04682,31.36536 17.28054,31.36536 C9.51264,31.36536 3.19356,25.04736 3.19356,17.28162 C3.19356,9.51318 9.51264,3.19302 17.28054,3.19302 C25.04682,3.19302 31.36536,9.51318 31.36536,17.28162 Z M17.28054,0 C7.7517,0 0,7.75278 0,17.28162 C0,26.80938 7.7517,34.56054 17.28054,34.56054 C26.80884,34.56054 34.56,26.80938 34.56,17.28162 C34.56,7.75278 26.80884,0 17.28054,0 L17.28054,0 Z" id="Fill-3"></path>
            </g>
        </g>
    </g>
</svg>