<?xml version="1.0" encoding="UTF-8"?>
<svg width="30px" height="27px" viewBox="0 0 30 27" version="1.1" xmlns="http://www.w3.org/2000/svg" xmlns:xlink="http://www.w3.org/1999/xlink">
    <!-- Generator: Sketch 64 (93537) - https://sketch.com -->
    <title>Group 4</title>
    <desc>Created with Sketch.</desc>
    <g id="Desktop" stroke="none" stroke-width="1" fill="none" fill-rule="evenodd">
        <g id="Home-–-Notifications" transform="translate(-110.000000, -129.000000)" fill="#FFFFFF">
            <g id="Group-4" transform="translate(110.000000, 129.000000)">
                <path d="M25.9005882,26.7706168 L4.10029118,26.7706168 C2.72391,26.7706168 1.49343941,26.0594109 0.806468824,24.868 C0.119439353,23.6788824 0.119439353,22.2565588 0.808766471,21.0674118 L11.7093559,2.18976471 C12.3940912,0.9995 13.6268559,0.288352941 15.0008265,0.288352941 C16.3747971,0.288352941 17.6076794,0.999529412 18.29465,2.18861765 L29.1920029,21.0662647 C29.8790294,22.2576765 29.8790294,23.68 29.1920029,24.8692059 C28.5049735,26.0594697 27.2745029,26.7706168 25.9005324,26.7706168 L25.9005882,26.7706168 Z M15.0008824,2.73911765 C14.7665059,2.73911765 14.1828824,2.80345588 13.8324412,3.41467647 L2.93067529,22.2923206 C2.57911647,22.9023794 2.81348706,23.4412029 2.93067529,23.6445853 C3.04786353,23.8479412 3.39711765,24.3201441 4.10141176,24.3201441 L25.9017059,24.3201441 C26.6048235,24.3201441 26.9529412,23.8490853 27.0701471,23.6445853 C27.1873353,23.4412294 27.424,22.9024088 27.0701471,22.2923206 L16.1716176,3.41467647 C15.8189118,2.80461765 15.2352647,2.73911765 15.0008824,2.73911765 Z" id="Fill-1"></path>
                <path d="M15.2091176,17.3976471 C14.5312647,17.3976471 13.9832353,16.8496176 13.9832353,16.1717647 L13.9832353,9.42441176 C13.9832353,8.74655882 14.5312647,8.19852941 15.2091176,8.19852941 C15.8869706,8.19852941 16.435,8.74655882 16.435,9.42441176 L16.435,16.1717647 C16.435,16.8496176 15.8869706,17.3976471 15.2091176,17.3976471 Z" id="Fill-2"></path>
                <path d="M16.6797059,20.255 C16.6797059,22.2161765 13.7385294,22.2161765 13.7385294,20.255 C13.7385294,18.2949706 16.6797059,18.2949706 16.6797059,20.255" id="Fill-3"></path>
            </g>
        </g>
    </g>
</svg>