<?xml version="1.0" encoding="UTF-8"?>
<svg width="25px" height="17px" viewBox="0 0 25 17" version="1.1" xmlns="http://www.w3.org/2000/svg" xmlns:xlink="http://www.w3.org/1999/xlink">
    <!-- Generator: Sketch 64 (93537) - https://sketch.com -->
    <title>Fill 1</title>
    <desc>Created with Sketch.</desc>
    <g id="Desktop" stroke="none" stroke-width="1" fill="none" fill-rule="evenodd">
        <g id="Map-and-List-with-filters-(Custom)" transform="translate(-688.000000, -1164.000000)" fill="#FFFFFF">
            <g id="Group" transform="translate(565.000000, 1067.000000)">
                <path d="M148,105.499046 C147.981894,105.308578 147.900514,105.055199 147.768495,104.911912 L140.824054,97.307123 C140.520234,96.9104572 139.896322,96.9104572 139.512943,97.235477 C139.127744,97.5604967 139.098809,98.1371365 139.435179,98.4814098 L145.034251,104.604607 L123.925926,104.604607 C123.41412,104.604607 123,105.004766 123,105.499288 C123,105.993823 123.414134,106.393969 123.925926,106.393969 L145.034251,106.393969 L139.435179,112.517166 C139.068063,112.859659 139.171147,113.448529 139.556346,113.773566 C139.941545,114.098586 140.52204,114.07587 140.824077,113.691439 L147.768519,106.08665 C147.954787,105.892688 147.989148,105.681248 148,105.499516 L148,105.499046 Z" id="Fill-1"></path>
            </g>
        </g>
    </g>
</svg>