<?xml version="1.0" encoding="UTF-8"?>
<svg width="20px" height="16px" viewBox="0 0 20 16" version="1.1" xmlns="http://www.w3.org/2000/svg" xmlns:xlink="http://www.w3.org/1999/xlink">
    <!-- Generator: Sketch 64 (93537) - https://sketch.com -->
    <title>Fill 1</title>
    <desc>Created with Sketch.</desc>
    <g id="Symbols" stroke="none" stroke-width="1" fill="none" fill-rule="evenodd">
        <g id="Mobile-Main-Menu" transform="translate(-15.000000, -17.000000)" fill="#002B49">
            <path d="M15.8108108,17 C15.3631892,17 15,17.3707034 15,17.8275862 C15,18.284469 15.3631892,18.6551724 15.8108108,18.6551724 L34.1891892,18.6551724 C34.6368108,18.6551724 35,18.284469 35,17.8275862 C35,17.3707034 34.6368108,17 34.1891892,17 L15.8108108,17 Z M15.8108108,24.1724138 C15.3631892,24.1724138 15,24.5431172 15,25 C15,25.4568828 15.3631892,25.8275862 15.8108108,25.8275862 L34.1891892,25.8275862 C34.6368108,25.8275862 35,25.4568828 35,25 C35,24.5431172 34.6368108,24.1724138 34.1891892,24.1724138 L15.8108108,24.1724138 Z M15.8108108,31.3448276 C15.3631892,31.3448276 15,31.715531 15,32.1724138 C15,32.6292966 15.3631892,33 15.8108108,33 L34.1891892,33 C34.6368108,33 35,32.6292966 35,32.1724138 C35,31.715531 34.6368108,31.3448276 34.1891892,31.3448276 L15.8108108,31.3448276 Z" id="Fill-1"></path>
        </g>
    </g>
</svg>