<?xml version="1.0" encoding="UTF-8"?>
<svg width="35px" height="35px" viewBox="0 0 35 35" version="1.1" xmlns="http://www.w3.org/2000/svg" xmlns:xlink="http://www.w3.org/1999/xlink">
    <!-- Generator: Sketch 64 (93537) - https://sketch.com -->
    <title>COP_IC_FINE_MARSDEN_R_POS</title>
    <desc>Created with Sketch.</desc>
    <defs>
        <polygon id="path-1" points="0.0328125 0.021875 35 0.021875 35 35 0.0328125 35"></polygon>
    </defs>
    <g id="Desktop" stroke="none" stroke-width="1" fill="none" fill-rule="evenodd">
        <g id="Event" transform="translate(-980.000000, -479.000000)">
            <g id="COP_IC_FINE_MARSDEN_R_POS" transform="translate(980.000000, 479.000000)">
                <g id="Group-3">
                    <mask id="mask-2" fill="white">
                        <use xlink:href="#path-1"></use>
                    </mask>
                    <g id="Clip-2"></g>
                    <path d="M31.7646875,17.5038281 C31.7646875,25.3684375 25.3657031,31.766875 17.5005469,31.766875 C9.63375,31.766875 3.23421875,25.3684375 3.23421875,17.5038281 C3.23421875,9.63648437 9.63375,3.23585937 17.5005469,3.23585937 C25.3657031,3.23585937 31.7646875,9.63648437 31.7646875,17.5038281 Z M17.5005469,0.0021875 C7.85039063,0.0021875 0,7.85367187 0,17.5038281 C0,27.1528906 7.85039063,35.0021875 17.5005469,35.0021875 C27.1501563,35.0021875 35,27.1528906 35,17.5038281 C35,7.85367187 27.1501563,0.0021875 17.5005469,0.0021875 L17.5005469,0.0021875 Z" id="Fill-1" fill="#122334" mask="url(#mask-2)"></path>
                </g>
                <path d="M18.4701563,18.6867187 C18.4701563,18.3121094 18.2246094,18.0928125 17.22875,17.7947656 C15.7549219,17.3550781 14.4489844,16.8251562 14.4489844,15.1440625 C14.4489844,13.7735937 15.3283594,12.7394531 16.8541406,12.5327344 L16.8541406,11.0195312 L18.2503125,11.0195312 L18.2503125,12.5835937 C19.1039844,12.7525781 19.9833594,13.1791406 20.6040625,13.6833594 L19.4014844,15.1828906 C18.6642969,14.6655469 18.0435937,14.4845312 17.513125,14.4845312 C16.9700781,14.4845312 16.7119531,14.678125 16.7119531,15.001875 C16.7119531,15.3125 16.9832031,15.5323438 17.8363281,15.7910156 C19.6339063,16.3340625 20.7588281,16.7989062 20.7588281,18.5188281 C20.7588281,19.9932031 19.7629687,20.9633594 18.2246094,21.1695312 L18.2246094,22.6433594 L16.8410156,22.6433594 L16.8410156,21.1564062 C15.8845313,21.0010938 14.9920313,20.5750781 14.2296875,19.8116406 L15.4705469,18.2989844 C16.1946094,18.9842187 17.0482812,19.2691406 17.6689844,19.2691406 C18.1726563,19.2691406 18.4701563,19.0235937 18.4701563,18.6867187 Z M23.2815625,25.2388281 L23.0835937,25.0151562 C23.0103125,24.9320312 22.9047656,24.8839062 22.7942969,24.8839062 C22.79375,24.8839062 22.79375,24.8839062 22.79375,24.8839062 C22.6827344,24.8844531 22.5766406,24.9325781 22.5039062,25.01625 L21.9121875,25.6910937 L21.3204687,25.01625 C21.2477344,24.9320312 21.1416406,24.8839062 21.0300781,24.8839062 C20.9190625,24.8839062 20.8135156,24.9320312 20.7402344,25.01625 L20.1490625,25.6910937 L19.5573438,25.01625 C19.4835156,24.9320312 19.3779687,24.8839062 19.2664063,24.8839062 C19.1553906,24.8839062 19.0498438,24.9320312 18.9760156,25.01625 L18.3848438,25.6910937 L17.793125,25.01625 C17.7198437,24.9320312 17.6142969,24.8839062 17.5032813,24.8839062 C17.3917187,24.8839062 17.285625,24.9320312 17.2128906,25.01625 L16.6211719,25.6910937 L16.0289063,25.01625 C15.9561719,24.9320312 15.8500781,24.8839062 15.7390625,24.8839062 C15.6275,24.8839062 15.5219531,24.9320312 15.4492188,25.01625 L14.8575,25.6910937 L14.2657813,25.01625 C14.1919531,24.9320312 14.0864062,24.8839062 13.9753906,24.8839062 C13.864375,24.8839062 13.7582813,24.9320312 13.685,25.01625 L13.0932813,25.6910937 L12.5021094,25.01625 C12.4288281,24.9320312 12.3227344,24.8844531 12.2117188,24.8839062 C12.1007031,24.8839062 11.9951563,24.9320312 11.921875,25.0157031 L11.7184375,25.2470312 L11.7184375,9.03765625 L23.2815625,9.03765625 L23.2815625,25.2388281 Z M23.6671094,8.26546875 L11.3328906,8.26546875 C11.1196094,8.26546875 10.9467969,8.43828125 10.9467969,8.6515625 L10.9467969,26.2713281 C10.9467969,26.4321094 11.0463281,26.5753906 11.1967188,26.6322656 C11.3465625,26.6891406 11.5166406,26.6464844 11.6227344,26.525625 L12.2111719,25.8557031 L12.8034375,26.5310938 C12.8767188,26.6147656 12.9822656,26.6623437 13.0932813,26.6623437 C13.2048438,26.6623437 13.3109375,26.6147656 13.3842188,26.5310938 L13.9753906,25.85625 L14.5671094,26.5310938 C14.6403906,26.6147656 14.7464844,26.6623437 14.8575,26.6623437 C14.9685156,26.6623437 15.0746094,26.6147656 15.1473438,26.5310938 L15.7390625,25.85625 L16.3307813,26.5310938 C16.4040625,26.6147656 16.5101563,26.6623437 16.6211719,26.6623437 C16.7321875,26.6623437 16.8377344,26.6147656 16.9115625,26.5310938 L17.5032813,25.85625 L18.095,26.5310938 C18.1677344,26.6147656 18.2732813,26.6623437 18.3848438,26.6623437 C18.4958594,26.6623437 18.6019531,26.6147656 18.6746875,26.5310938 L19.2664063,25.85625 L19.858125,26.5310938 C19.9314062,26.6147656 20.0375,26.6623437 20.1490625,26.6623437 C20.2600781,26.6623437 20.365625,26.6147656 20.4389062,26.5310938 L21.0300781,25.85625 L21.6217969,26.5310938 C21.695625,26.6147656 21.8011719,26.6623437 21.9121875,26.6623437 C22.0232031,26.6623437 22.1292969,26.6147656 22.203125,26.5310938 L22.7953906,25.8551563 L23.3778125,26.5146875 C23.4839062,26.635 23.6539844,26.6771094 23.8038281,26.6202344 C23.9542187,26.5633594 24.0532031,26.4195312 24.0532031,26.2592969 L24.0532031,8.6515625 C24.0532031,8.43828125 23.8803906,8.26546875 23.6671094,8.26546875 L23.6671094,8.26546875 Z" id="Fill-4" fill="#122334"></path>
            </g>
        </g>
    </g>
</svg>