<?xml version="1.0" encoding="UTF-8"?>
<svg width="32px" height="26px" viewBox="0 0 32 26" version="1.1" xmlns="http://www.w3.org/2000/svg" xmlns:xlink="http://www.w3.org/1999/xlink">
    <!-- Generator: Sketch 64 (93537) - https://sketch.com -->
    <title>Group 2</title>
    <desc>Created with Sketch.</desc>
    <g id="Symbols" stroke="none" stroke-width="1" fill="none" fill-rule="evenodd">
        <g id="Chatbot" transform="translate(-26.000000, -7.000000)">
            <g id="Group-2" transform="translate(26.000000, 7.000000)">
                <g id="b-comment" transform="translate(4.165680, 0.000000)" fill="#FFFFFF" fill-rule="nonzero">
                    <path d="M25.0802184,11.6417667 C23.893201,16.4509777 18.5826303,20.08933 12.2282878,20.08933 C11.2080439,20.0883066 10.1901772,19.9909213 9.18824814,19.7984715 L9.12754342,19.8272953 C10.813737,22.1144218 13.9909082,23.5831266 17.4689826,23.5831266 C18.4551618,23.5831874 19.4377012,23.4635229 20.3950372,23.2267593 L23.7971216,25.2680099 C23.8645469,25.3080785 23.9414205,25.3294825 24.0198511,25.3300248 C24.2610474,25.3300248 24.4565757,25.1344966 24.4565757,24.8933002 L24.4565757,21.2549479 C26.1484467,19.8709677 27.0769231,18.0694789 27.0769231,16.1588089 C27.0475327,14.4455168 26.3275299,12.8166914 25.0802184,11.6417667 Z" id="Path"></path>
                    <path d="M3.05707196,21.8362546 C2.81587564,21.8362546 2.62034739,21.6407 2.62034739,21.3995037 L2.62034739,15.5473945 C0.988158531,13.9973805 0.0444942155,11.858408 0,9.60794045 C0,4.31003474 5.48569727,0 12.2282878,0 C18.9708784,0 24.4565757,4.31003474 24.4565757,9.60794045 C24.4565757,14.9058462 18.9708784,19.2158809 12.2282878,19.2158809 C11.1655064,19.214648 10.1057222,19.1031226 9.06596526,18.8830968 L3.25228784,21.7925558 C3.19147124,21.822021 3.12464641,21.8369707 3.05707196,21.8362546 Z" id="Path"></path>
                </g>
                <circle id="Oval" fill="#FF7E00" cx="4.83516484" cy="4.83516484" r="4.83516484"></circle>
            </g>
        </g>
    </g>
</svg>