<?xml version="1.0" encoding="UTF-8"?>
<svg width="13px" height="13px" viewBox="0 0 13 13" version="1.1" xmlns="http://www.w3.org/2000/svg" xmlns:xlink="http://www.w3.org/1999/xlink">
    <!-- Generator: Sketch 64 (93537) - https://sketch.com -->
    <title>Fill 1</title>
    <desc>Created with Sketch.</desc>
    <g id="Desktop" stroke="none" stroke-width="1" fill="none" fill-rule="evenodd">
        <g id="Map-and-List-with-filters-(Custom)" transform="translate(-140.000000, -473.000000)" fill="#A2AAAD">
            <path d="M146.5,472 C146.051845,472 145.689189,472.362655 145.689189,472.810811 L145.689189,478.689189 L139.810811,478.689189 C139.362655,478.689189 139,479.051845 139,479.5 C139,479.948155 139.362655,480.310811 139.810811,480.310811 L145.689189,480.310811 L145.689189,486.189189 C145.689189,486.637345 146.051845,487 146.5,487 C146.948155,487 147.310811,486.637345 147.310811,486.189189 L147.310811,480.310811 L153.189189,480.310811 C153.637345,480.310811 154,479.948155 154,479.5 C154,479.051845 153.637345,478.689189 153.189189,478.689189 L147.310811,478.689189 L147.310811,472.810811 C147.310811,472.362655 146.948155,472 146.5,472 Z" id="Fill-1" transform="translate(146.500000, 479.500000) rotate(45.000000) translate(-146.500000, -479.500000) "></path>
        </g>
    </g>
</svg>