<?xml version="1.0" encoding="UTF-8"?>
<svg width="15px" height="15px" viewBox="0 0 15 15" version="1.1" xmlns="http://www.w3.org/2000/svg" xmlns:xlink="http://www.w3.org/1999/xlink">
    <!-- Generator: Sketch 64 (93537) - https://sketch.com -->
    <title>Fill 1</title>
    <desc>Created with Sketch.</desc>
    <g id="Mobile" stroke="none" stroke-width="1" fill="none" fill-rule="evenodd">
        <g id="M-Home-–-Menu" transform="translate(-290.000000, -18.000000)" fill="#002B49">
            <g id="Group-6">
                <path d="M304.756243,18.2437565 C304.431235,17.9187478 303.904742,17.9187478 303.579734,18.2437565 L297.5,24.3234903 L291.420266,18.2437565 C291.095258,17.9187478 290.568765,17.9187478 290.243757,18.2437565 C289.918748,18.5687652 289.918748,19.0952576 290.243757,19.4202662 L296.32349,25.5 L290.243757,31.5797338 C289.918748,31.9047424 289.918748,32.4312348 290.243757,32.7562435 C290.568765,33.0812522 291.095258,33.0812522 291.420266,32.7562435 L297.5,26.6765097 L303.579734,32.7562435 C303.904742,33.0812522 304.431235,33.0812522 304.756243,32.7562435 C305.081252,32.4312348 305.081252,31.9047424 304.756243,31.5797338 L298.67651,25.5 L304.756243,19.4202662 C305.081252,19.0952576 305.081252,18.5687652 304.756243,18.2437565 Z" id="Fill-1"></path>
            </g>
        </g>
    </g>
</svg>