<?xml version="1.0" encoding="UTF-8"?>
<svg width="15px" height="15px" viewBox="0 0 15 15" version="1.1" xmlns="http://www.w3.org/2000/svg" xmlns:xlink="http://www.w3.org/1999/xlink">
    <!-- Generator: Sketch 64 (93537) - https://sketch.com -->
    <title>Fill 1</title>
    <desc>Created with Sketch.</desc>
    <g id="Desktop" stroke="none" stroke-width="1" fill="none" fill-rule="evenodd">
        <g id="Home-–-Notifications" transform="translate(-1300.000000, -693.000000)" fill="#FFFFFF">
            <g id="Group-5" transform="translate(110.000000, 678.000000)">
                <path d="M1204.75624,15.2437565 C1204.43123,14.9187478 1203.90474,14.9187478 1203.57973,15.2437565 L1197.5,21.3234903 L1191.42027,15.2437565 C1191.09526,14.9187478 1190.56877,14.9187478 1190.24376,15.2437565 C1189.91875,15.5687652 1189.91875,16.0952576 1190.24376,16.4202662 L1196.32349,22.5 L1190.24376,28.5797338 C1189.91875,28.9047424 1189.91875,29.4312348 1190.24376,29.7562435 C1190.56877,30.0812522 1191.09526,30.0812522 1191.42027,29.7562435 L1197.5,23.6765097 L1203.57973,29.7562435 C1203.90474,30.0812522 1204.43123,30.0812522 1204.75624,29.7562435 C1205.08125,29.4312348 1205.08125,28.9047424 1204.75624,28.5797338 L1198.67651,22.5 L1204.75624,16.4202662 C1205.08125,16.0952576 1205.08125,15.5687652 1204.75624,15.2437565 Z" id="Fill-1"></path>
            </g>
        </g>
    </g>
</svg>