<?xml version="1.0" encoding="UTF-8"?>
<svg width="35px" height="35px" viewBox="0 0 35 35" version="1.1" xmlns="http://www.w3.org/2000/svg" xmlns:xlink="http://www.w3.org/1999/xlink">
    <!-- Generator: Sketch 64 (93537) - https://sketch.com -->
    <title>Fill 1</title>
    <desc>Created with Sketch.</desc>
    <g id="Desktop" stroke="none" stroke-width="1" fill="none" fill-rule="evenodd">
        <g id="Events-Calendar" transform="translate(-603.000000, -1905.000000)" fill="#00B8DE">
            <path d="M624.884121,1935.55765 C627.208324,1934.7797 628.39216,1938.31529 626.066732,1939.09339 C623.948959,1939.80431 621.698746,1940.10101 619.468553,1939.96976 C609.824333,1939.39964 602.462107,1931.11292 603.030855,1921.46892 C603.600968,1911.82457 611.887577,1904.46084 621.531447,1905.031 C631.175666,1905.60112 638.537893,1913.88784 637.969145,1923.53184 C637.924026,1924.31116 637.821491,1925.1301 637.669731,1925.89573 C637.199403,1928.30746 633.532744,1927.59244 634.002793,1925.18067 C634.127207,1924.54902 634.206503,1923.95566 634.243417,1923.31309 C634.691836,1915.73201 628.893684,1909.20374 621.312708,1908.75644 C613.731732,1908.30801 607.203552,1914.10624 606.756254,1921.68732 C606.307836,1929.2684 612.105987,1935.79667 619.686963,1936.24397 C621.456102,1936.34788 623.203402,1936.12229 624.883747,1935.55765 L624.884121,1935.55765 Z" id="Fill-1"></path>
        </g>
    </g>
</svg>