<?xml version="1.0" encoding="UTF-8"?>
<svg width="21px" height="20px" viewBox="0 0 21 20" version="1.1" xmlns="http://www.w3.org/2000/svg" xmlns:xlink="http://www.w3.org/1999/xlink">
    <!-- Generator: Sketch 64 (93537) - https://sketch.com -->
    <title>loan</title>
    <desc>Created with Sketch.</desc>
    <g id="Desktop" stroke="none" stroke-width="1" fill="none" fill-rule="evenodd">
        <g id="Event" transform="translate(-981.000000, -740.000000)" fill="#002B49" fill-rule="nonzero">
            <g id="loan" transform="translate(981.000000, 740.000000)">
                <path d="M20.8423729,12.8532203 C20.6500958,12.4905941 20.317267,12.2229009 19.9218482,12.1128452 C19.5264295,12.0027894 19.10316,12.06004 18.7511864,12.2711864 L15.0877966,14.4169492 C14.7890095,15.1441681 14.1140575,15.6477761 13.3318644,15.7271186 L8.16949153,16.2711864 C8.15767536,16.2725396 8.1457917,16.2732187 8.13389831,16.2732203 C7.95446962,16.2716035 7.80738265,16.1304406 7.79839515,15.9512299 C7.78940765,15.7720191 7.92163336,15.6168485 8.1,15.5972881 L8.13559322,15.5932203 L8.13559322,15.5932203 L13.2311864,15.0569492 C13.9957786,14.9763023 14.5761768,14.3315455 14.5762712,13.5627119 L14.5762712,13.5627119 C14.576428,12.7908054 13.9914811,12.1444472 13.2233898,12.0677966 L8.21898305,11.5677966 C7.93848156,11.5396246 7.66257616,11.4766549 7.39762712,11.380339 L4.76677966,10.4237288 C4.30633531,10.2562342 3.81505389,10.1905449 3.32677966,10.2311864 L0.309830508,10.4827119 C0.133683067,10.4973817 -0.00162675408,10.6449387 -0.00101900215,10.8216949 L-0.00101900215,16.6101695 C-0.00101900215,16.7973847 0.150750932,16.9491525 0.337966102,16.9491525 L1.52542373,16.9491525 C2.07833646,16.9491331 2.62286115,17.0843624 3.11152542,17.3430508 L6.98305085,19.3922034 C7.72176867,19.7832064 8.57889823,19.8875106 9.38983051,19.6850847 L15.8508475,18.0694915 C16.1240137,18.0012616 16.3800384,17.8770585 16.6027119,17.7047458 L20.3837288,14.7776271 C20.9816728,14.3313476 21.1747498,13.5212234 20.8423729,12.8532203 Z" id="Path"></path>
                <path d="M12.8813559,0 C10.4475587,0 8.47457627,1.97298246 8.47457627,4.40677966 C8.47457627,6.84057686 10.4475587,8.81355932 12.8813559,8.81355932 C15.3151531,8.81355932 17.2881356,6.84057686 17.2881356,4.40677966 C17.2853336,1.97414405 15.3139915,0.00280204035 12.8813559,0 L12.8813559,0 Z M14.4769492,4.64644068 L13.1210169,6.00237288 C12.9886441,6.13470574 12.7740677,6.13470574 12.6416949,6.00237288 L11.2857627,4.64644068 C11.1534299,4.51406785 11.1534299,4.29949148 11.2857627,4.16711864 L12.6416949,2.81118644 C12.7740677,2.67885358 12.9886441,2.67885358 13.1210169,2.81118644 L14.4769492,4.16711864 C14.609282,4.29949148 14.609282,4.51406785 14.4769492,4.64644068 Z" id="Shape"></path>
            </g>
        </g>
    </g>
</svg>