<?xml version="1.0" encoding="UTF-8"?>
<svg width="15px" height="20px" viewBox="0 0 15 20" version="1.1" xmlns="http://www.w3.org/2000/svg" xmlns:xlink="http://www.w3.org/1999/xlink">
    <!-- Generator: Sketch 64 (93537) - https://sketch.com -->
    <title>Shape</title>
    <desc>Created with Sketch.</desc>
    <g id="Desktop" stroke="none" stroke-width="1" fill="none" fill-rule="evenodd">
        <g id="Map-and-List-with-filters-(Custom)" transform="translate(-475.000000, -1172.000000)" fill="#002B49" fill-rule="nonzero">
            <path d="M482.5,1172 C478.813261,1172 475,1174.83246 475,1179.57213 C475,1184.5377 481.972717,1191.60557 482.269457,1191.90393 C482.330435,1191.96557 482.413587,1192 482.5,1192 C482.586413,1192 482.669565,1191.96557 482.730543,1191.90393 C483.027283,1191.60557 490,1184.5377 490,1179.57213 C490,1174.83246 486.186739,1172 482.5,1172 Z M482.5,1182.16393 C481.059348,1182.16393 479.891304,1180.98951 479.891304,1179.54098 C479.891304,1178.09246 481.059348,1176.91803 482.5,1176.91803 C483.940652,1176.91803 485.108696,1178.09246 485.108696,1179.54098 C485.108696,1180.98951 483.940652,1182.16393 482.5,1182.16393 Z" id="Shape"></path>
        </g>
    </g>
</svg>