<?xml version="1.0" encoding="UTF-8"?>
<svg width="23px" height="30px" viewBox="0 0 23 30" version="1.1" xmlns="http://www.w3.org/2000/svg" xmlns:xlink="http://www.w3.org/1999/xlink">
    <!-- Generator: Sketch 64 (93537) - https://sketch.com -->
    <title>Shape</title>
    <desc>Created with Sketch.</desc>
    <g id="Desktop" stroke="none" stroke-width="1" fill="none" fill-rule="evenodd">
        <g id="Map-and-List-with-filters-(Custom)" transform="translate(-558.000000, -1186.000000)" fill="#FF7E00" fill-rule="nonzero">
            <path d="M569.5,1186 C563.847,1186 558,1190.24869 558,1197.3582 C558,1204.80656 568.6915,1215.40836 569.1465,1215.8559 C569.24,1215.94836 569.3675,1216 569.5,1216 C569.6325,1216 569.76,1215.94836 569.8535,1215.8559 C570.3085,1215.40836 581,1204.80656 581,1197.3582 C581,1190.24869 575.153,1186 569.5,1186 Z M569.5,1201.2459 C567.291,1201.2459 565.5,1199.48426 565.5,1197.31148 C565.5,1195.13869 567.291,1193.37705 569.5,1193.37705 C571.709,1193.37705 573.5,1195.13869 573.5,1197.31148 C573.5,1199.48426 571.709,1201.2459 569.5,1201.2459 Z" id="Shape"></path>
        </g>
    </g>
</svg>