<?xml version="1.0" encoding="UTF-8"?>
<svg width="18px" height="20px" viewBox="0 0 18 20" version="1.1" xmlns="http://www.w3.org/2000/svg" xmlns:xlink="http://www.w3.org/1999/xlink">
    <!-- Generator: Sketch 64 (93537) - https://sketch.com -->
    <title>pin-star</title>
    <desc>Created with Sketch.</desc>
    <g id="Desktop" stroke="none" stroke-width="1" fill="none" fill-rule="evenodd">
        <g id="Event" transform="translate(-981.000000, -668.000000)" fill="#002B49" fill-rule="nonzero">
            <g id="pin-star" transform="translate(981.000000, 668.000000)">
                <path d="M7.55555556,20 C7.67341992,20 7.78644767,19.9531331 7.86977778,19.8697778 C7.988,19.752 9.16533333,18.5644444 10.5364444,16.8631111 L10.5666667,16.6853333 L9.29066667,15.4408889 C8.92723258,15.0865465 8.7965139,14.5565851 8.95348464,14.0738811 C9.11045539,13.5911772 9.52788489,13.2394684 10.0302222,13.1666667 L11.7933333,12.9106667 L12.5822222,11.3133333 C12.8090303,10.8629672 13.2735961,10.5821553 13.7777778,10.5906667 C13.9881378,10.5908469 14.1956633,10.6391935 14.3844444,10.732 C14.8271269,9.72925078 15.0737869,8.65103748 15.1111111,7.55555556 C15.1307861,5.54573061 14.3410762,3.61249275 12.9198473,2.19126381 C11.4986184,0.770034866 9.5653805,-0.0196750065 7.55555556,3.14147579e-16 C5.54573061,-0.0196750065 3.61249275,0.770034866 2.19126381,2.19126381 C0.770034866,3.61249275 -0.0196750065,5.54573061 -1.97324795e-16,7.55555556 C5.42101086e-20,12.5711111 6.94533333,19.5742222 7.24133333,19.8697778 C7.32466344,19.9531331 7.43769119,20 7.55555556,20 Z M4.88888889,7.55555556 C4.88888889,6.08279622 6.08279622,4.88888889 7.55555556,4.88888889 C9.02831489,4.88888889 10.2222222,6.08279622 10.2222222,7.55555556 C10.2222222,9.02831489 9.02831489,10.2222222 7.55555556,10.2222222 C6.08340552,10.2207523 4.89035884,9.02770559 4.88888889,7.55555556 L4.88888889,7.55555556 Z" id="Shape"></path>
                <path d="M14.1777778,11.7071111 C14.0946856,11.5661062 13.9432219,11.4795556 13.7795556,11.4795556 C13.6158892,11.4795556 13.4644255,11.5661062 13.3813333,11.7071111 L12.3857778,13.7235556 L10.16,14.0466667 C9.99254127,14.0709846 9.85342027,14.1882851 9.8011566,14.349227 C9.74889293,14.5101689 9.79255535,14.6868257 9.91377778,14.8048889 L11.5244444,16.3751111 L11.144,18.5915556 C11.1154317,18.7582888 11.1839921,18.9267834 11.3208574,19.0262017 C11.4577227,19.12562 11.6391594,19.1387223 11.7888889,19.06 L13.7777778,18.0137778 L15.7684444,19.06 C15.9181739,19.1387223 16.0996107,19.12562 16.2364759,19.0262017 C16.3733412,18.9267834 16.4419016,18.7582888 16.4133333,18.5915556 L16.0328889,16.3751111 L17.6444444,14.8048889 C17.7656669,14.6868257 17.8093293,14.5101689 17.7570656,14.349227 C17.704802,14.1882851 17.565681,14.0709846 17.3982222,14.0466667 L15.1724444,13.7235556 L14.1777778,11.7071111 Z" id="Path"></path>
            </g>
        </g>
    </g>
</svg>