<?xml version="1.0" encoding="UTF-8"?>
<svg width="22px" height="22px" viewBox="0 0 22 22" version="1.1" xmlns="http://www.w3.org/2000/svg" xmlns:xlink="http://www.w3.org/1999/xlink">
    <!-- Generator: Sketch 64 (93537) - https://sketch.com -->
    <title>Fill 1</title>
    <desc>Created with Sketch.</desc>
    <g id="Desktop" stroke="none" stroke-width="1" fill="none" fill-rule="evenodd">
        <g id="Sub-Child-(Form)" transform="translate(-226.000000, -1532.000000)" fill="#FFFFFF">
            <path d="M237,1532 C236.342705,1532 235.810811,1532.53189 235.810811,1533.18919 L235.810811,1541.81081 L227.189189,1541.81081 C226.531895,1541.81081 226,1542.34271 226,1543 C226,1543.65729 226.531895,1544.18919 227.189189,1544.18919 L235.810811,1544.18919 L235.810811,1552.81081 C235.810811,1553.46811 236.342705,1554 237,1554 C237.657295,1554 238.189189,1553.46811 238.189189,1552.81081 L238.189189,1544.18919 L246.810811,1544.18919 C247.468105,1544.18919 248,1543.65729 248,1543 C248,1542.34271 247.468105,1541.81081 246.810811,1541.81081 L238.189189,1541.81081 L238.189189,1533.18919 C238.189189,1532.53189 237.657295,1532 237,1532 Z" id="Fill-1"></path>
        </g>
    </g>
</svg>