<?xml version="1.0" encoding="UTF-8"?>
<svg width="20px" height="20px" viewBox="0 0 20 20" version="1.1" xmlns="http://www.w3.org/2000/svg" xmlns:xlink="http://www.w3.org/1999/xlink">
    <!-- Generator: Sketch 64 (93537) - https://sketch.com -->
    <title>Fill 1</title>
    <desc>Created with Sketch.</desc>
    <g id="Desktop" stroke="none" stroke-width="1" fill="none" fill-rule="evenodd">
        <g id="Map-and-List-(Custom)" transform="translate(-1213.000000, -470.000000)" fill="#D0D0CE">
            <path d="M1225.50521,487.461514 C1226.83333,487.016969 1227.50981,489.03731 1226.18099,489.481934 C1224.97083,489.888179 1223.685,490.05772 1222.4106,489.98272 C1216.89962,489.656936 1212.69263,484.921667 1213.01763,479.41081 C1213.34341,473.899753 1218.07862,469.691909 1223.5894,470.017713 C1229.10038,470.343496 1233.30737,475.078765 1232.98237,480.589623 C1232.95659,481.034947 1232.89799,481.502912 1232.81127,481.940417 C1232.54252,483.318551 1230.44728,482.909967 1230.71588,481.531812 C1230.78698,481.170869 1230.83229,480.831805 1230.85338,480.464621 C1231.10962,476.132576 1227.79639,472.402138 1223.4644,472.146535 C1219.13242,471.890292 1215.40203,475.203567 1215.14643,479.535612 C1214.89019,483.867657 1218.20342,487.598095 1222.53541,487.853698 C1223.54634,487.913075 1224.5448,487.784165 1225.505,487.461514 L1225.50521,487.461514 Z" id="Fill-1"></path>
        </g>
    </g>
</svg>