<?xml version="1.0" encoding="UTF-8"?>
<svg width="20px" height="20px" viewBox="0 0 20 20" version="1.1" xmlns="http://www.w3.org/2000/svg" xmlns:xlink="http://www.w3.org/1999/xlink">
    <!-- Generator: Sketch 64 (93537) - https://sketch.com -->
    <title>Fill 1</title>
    <desc>Created with Sketch.</desc>
    <g id="Desktop" stroke="none" stroke-width="1" fill="none" fill-rule="evenodd">
        <g id="Map-and-List-with-filters-(Custom)" transform="translate(-1219.000000, -470.000000)" fill="#00B8DE">
            <path d="M1231.50521,487.461514 C1232.83333,487.016969 1233.50981,489.03731 1232.18099,489.481934 C1230.97083,489.888179 1229.685,490.05772 1228.4106,489.98272 C1222.89962,489.656936 1218.69263,484.921667 1219.01763,479.41081 C1219.34341,473.899753 1224.07862,469.691909 1229.5894,470.017713 C1235.10038,470.343496 1239.30737,475.078765 1238.98237,480.589623 C1238.95659,481.034947 1238.89799,481.502912 1238.81127,481.940417 C1238.54252,483.318551 1236.44728,482.909967 1236.71588,481.531812 C1236.78698,481.170869 1236.83229,480.831805 1236.85338,480.464621 C1237.10962,476.132576 1233.79639,472.402138 1229.4644,472.146535 C1225.13242,471.890292 1221.40203,475.203567 1221.14643,479.535612 C1220.89019,483.867657 1224.20342,487.598095 1228.53541,487.853698 C1229.54634,487.913075 1230.5448,487.784165 1231.505,487.461514 L1231.50521,487.461514 Z" id="Fill-1"></path>
        </g>
    </g>
</svg>