<?xml version="1.0" encoding="UTF-8"?>
<svg width="14px" height="20px" viewBox="0 0 14 20" version="1.1" xmlns="http://www.w3.org/2000/svg" xmlns:xlink="http://www.w3.org/1999/xlink">
    <!-- Generator: Sketch 64 (93537) - https://sketch.com -->
    <title>Fill 1</title>
    <desc>Created with Sketch.</desc>
    <g id="Desktop" stroke="none" stroke-width="1" fill="none" fill-rule="evenodd">
        <g id="Event" transform="translate(-984.000000, -810.000000)" fill="#002B49">
            <path d="M994.043539,830 C992.745891,830 991.548533,829.461973 990.411908,828.401776 C988.810602,826.900798 987.489553,824.455896 986.414773,822.261508 C985.380109,820.163311 984.770566,818.642778 984.386676,817.314624 C984.121463,816.410338 984,815.5811 984,814.832197 C984,814.157286 984.101962,813.542625 984.324273,813.003541 C984.770566,811.885735 985.623592,811.000476 986.922912,810.441309 L987.591515,810.152212 C987.835555,810.039638 988.100211,810 988.364309,810 C989.032356,810 989.702631,810.345648 990.026346,811.000476 L991.365225,813.734475 C991.486688,813.964907 991.548533,814.214365 991.548533,814.466466 C991.548533,815.082184 991.143471,815.754981 990.473753,816.044607 L989.559438,816.447334 C989.437975,816.507056 989.29534,816.660853 989.29534,816.834734 C989.29534,816.911368 989.29534,816.968448 989.335456,817.044554 L992.501851,823.49453 C992.562582,823.629301 992.724718,823.743988 992.928085,823.743988 C992.989931,823.743988 993.070164,823.743988 993.130338,823.705407 L994.043539,823.30268 C994.288136,823.18535 994.55112,823.147825 994.814104,823.147825 C995.463764,823.147825 996.194213,823.49453 996.499542,824.149358 L997.838978,826.880715 C997.960998,827.112732 998,827.362719 998,827.613762 C998,828.267533 997.615553,828.904392 996.945278,829.191903 L996.296175,829.481528 C995.525053,829.827176 994.774545,830 994.043539,830" id="Fill-1"></path>
        </g>
    </g>
</svg>