<?xml version="1.0" encoding="UTF-8"?>
<svg width="20px" height="20px" viewBox="0 0 20 20" version="1.1" xmlns="http://www.w3.org/2000/svg" xmlns:xlink="http://www.w3.org/1999/xlink">
    <!-- Generator: Sketch 64 (93537) - https://sketch.com -->
    <title>time-clock</title>
    <desc>Created with Sketch.</desc>
    <g id="Desktop" stroke="none" stroke-width="1" fill="none" fill-rule="evenodd">
        <g id="Event" transform="translate(-980.000000, -579.000000)" fill="#002B49" fill-rule="nonzero">
            <g id="time-clock" transform="translate(980.000000, 579.000000)">
                <path d="M10,0 C4.47826087,0 0,4.47826087 0,10 C0,15.5217391 4.47826087,20 10,20 C15.5217391,20 20,15.5217391 20,10 C20,4.47826087 15.5217391,0 10,0 Z M9.56521739,1.73913043 C9.56521739,1.47826087 9.73913043,1.30434783 10,1.30434783 C10.2608696,1.30434783 10.4347826,1.47826087 10.4347826,1.73913043 L10.4347826,3.47826087 C10.4347826,3.73913043 10.2608696,3.91304348 10,3.91304348 C9.73913043,3.91304348 9.56521739,3.73913043 9.56521739,3.47826087 L9.56521739,1.73913043 Z M3.47826087,10.4347826 L1.73913043,10.4347826 C1.47826087,10.4347826 1.30434783,10.2608696 1.30434783,10 C1.30434783,9.73913043 1.47826087,9.56521739 1.73913043,9.56521739 L3.47826087,9.56521739 C3.73913043,9.56521739 3.91304348,9.73913043 3.91304348,10 C3.91304348,10.2608696 3.73913043,10.4347826 3.47826087,10.4347826 Z M10.4347826,18.2608696 C10.4347826,18.5217391 10.2608696,18.6956522 10,18.6956522 C9.73913043,18.6956522 9.56521739,18.5217391 9.56521739,18.2608696 L9.56521739,16.5217391 C9.56521739,16.2608696 9.73913043,16.0869565 10,16.0869565 C10.2608696,16.0869565 10.4347826,16.2608696 10.4347826,16.5217391 L10.4347826,18.2608696 Z M13.4782609,10.4347826 L10,10.4347826 C9.86956522,10.4347826 9.73913043,10.3478261 9.65217391,10.2608696 L6.17391304,5.04347826 C6.04347826,4.82608696 6.08695652,4.56521739 6.30434783,4.43478261 C6.52173913,4.30434783 6.7826087,4.34782609 6.91304348,4.56521739 L10.2173913,9.56521739 L13.4782609,9.56521739 C13.7391304,9.56521739 13.9130435,9.73913043 13.9130435,10 C13.9130435,10.2608696 13.7391304,10.4347826 13.4782609,10.4347826 Z M18.2608696,10.4347826 L16.5217391,10.4347826 C16.2608696,10.4347826 16.0869565,10.2608696 16.0869565,10 C16.0869565,9.73913043 16.2608696,9.56521739 16.5217391,9.56521739 L18.2608696,9.56521739 C18.5217391,9.56521739 18.6956522,9.73913043 18.6956522,10 C18.6956522,10.2608696 18.5217391,10.4347826 18.2608696,10.4347826 Z" id="Shape"></path>
            </g>
        </g>
    </g>
</svg>