<?xml version="1.0" encoding="UTF-8"?>
<svg width="20px" height="20px" viewBox="0 0 20 20" version="1.1" xmlns="http://www.w3.org/2000/svg" xmlns:xlink="http://www.w3.org/1999/xlink">
    <!-- Generator: Sketch 58 (84663) - https://sketch.com -->
    <title>world-2</title>
    <desc>Created with Sketch.</desc>
    <g id="Symbols" stroke="none" stroke-width="1" fill="none" fill-rule="evenodd">
        <g id="Main-Menu" transform="translate(-1243.000000, -10.000000)" fill="#FFFFFF" fill-rule="nonzero">
            <g id="world-2" transform="translate(1243.000000, 10.000000)">
                <path d="M5.5483871,13.7741935 C6.77419355,13.2580645 8.16129032,12.9354839 9.67741935,12.9032258 L9.67741935,10.3225806 L5.16129032,10.3225806 C5.19354839,11.5483871 5.32258065,12.7096774 5.5483871,13.7741935 Z" id="Path"></path>
                <path d="M5.16129032,9.67741935 L9.67741935,9.67741935 L9.67741935,7.09677419 C8.16129032,7.06451613 6.77419355,6.77419355 5.5483871,6.22580645 C5.32258065,7.29032258 5.19354839,8.4516129 5.16129032,9.67741935 Z" id="Path"></path>
                <path d="M9.67741935,0.0322580645 C7.80645161,1 6.41935484,2.93548387 5.70967742,5.58064516 C6.87096774,6.12903226 8.22580645,6.41935484 9.67741935,6.4516129 L9.67741935,0.0322580645 Z" id="Path"></path>
                <path d="M15.0322581,5.93548387 C15.2903226,7.09677419 15.4516129,8.35483871 15.483871,9.67741935 L20,9.67741935 C19.9354839,7.41935484 19.0967742,5.35483871 17.7741935,3.70967742 C17,4.64516129 16.0967742,5.38709677 15.0322581,5.93548387 Z" id="Path"></path>
                <path d="M15.483871,10.3225806 C15.4516129,11.6774194 15.3225806,12.9354839 15.0322581,14.0645161 C16.0967742,14.6129032 17,15.3548387 17.7741935,16.2903226 C19.0967742,14.6451613 19.9354839,12.5806452 20,10.3225806 L15.483871,10.3225806 Z" id="Path"></path>
                <path d="M10.3225806,0.0322580645 L10.3225806,6.4516129 C11.7741935,6.41935484 13.0967742,6.12903226 14.2903226,5.58064516 C13.5806452,2.96774194 12.1935484,1 10.3225806,0.0322580645 Z" id="Path"></path>
                <path d="M9.67741935,19.9677419 L9.67741935,13.5483871 C8.22580645,13.5806452 6.90322581,13.8709677 5.70967742,14.4193548 C6.41935484,17.0322581 7.80645161,19 9.67741935,19.9677419 Z" id="Path"></path>
                <path d="M14.8709677,5.29032258 C15.8387097,4.77419355 16.6451613,4.06451613 17.3225806,3.22580645 C15.8709677,1.61290323 13.9032258,0.516129032 11.6774194,0.129032258 C13.1612903,1.29032258 14.2580645,3.06451613 14.8709677,5.29032258 Z" id="Path"></path>
                <path d="M4.96774194,14.0645161 C4.70967742,12.9032258 4.5483871,11.6451613 4.51612903,10.3225806 L0,10.3225806 C0.064516129,12.5806452 0.903225806,14.6451613 2.22580645,16.2903226 C3,15.3548387 3.90322581,14.6129032 4.96774194,14.0645161 Z" id="Path"></path>
                <path d="M2.22580645,3.70967742 C0.903225806,5.35483871 0.064516129,7.41935484 0,9.67741935 L4.51612903,9.67741935 C4.5483871,8.32258065 4.67741935,7.06451613 4.96774194,5.93548387 C3.90322581,5.38709677 3,4.64516129 2.22580645,3.70967742 Z" id="Path"></path>
                <path d="M5.12903226,14.7096774 C4.16129032,15.2258065 3.35483871,15.9354839 2.67741935,16.7741935 C4.12903226,18.3548387 6.09677419,19.4516129 8.32258065,19.8387097 C6.83870968,18.7096774 5.74193548,16.9354839 5.12903226,14.7096774 Z" id="Path"></path>
                <path d="M14.8709677,14.7096774 C14.2580645,16.9354839 13.1612903,18.7096774 11.6774194,19.8387097 C13.9032258,19.4516129 15.8709677,18.3548387 17.3225806,16.7741935 C16.6451613,15.9354839 15.8387097,15.2258065 14.8709677,14.7096774 Z" id="Path"></path>
                <path d="M5.12903226,5.29032258 C5.74193548,3.06451613 6.83870968,1.29032258 8.32258065,0.161290323 C6.09677419,0.516129032 4.12903226,1.61290323 2.67741935,3.22580645 C3.35483871,4.06451613 4.16129032,4.77419355 5.12903226,5.29032258 Z" id="Path"></path>
                <path d="M14.8387097,10.3225806 L10.3225806,10.3225806 L10.3225806,12.9032258 C11.8387097,12.9354839 13.2258065,13.2258065 14.4516129,13.7741935 C14.6774194,12.7096774 14.8064516,11.5483871 14.8387097,10.3225806 Z" id="Path"></path>
                <path d="M14.4516129,6.22580645 C13.2258065,6.74193548 11.8387097,7.06451613 10.3225806,7.09677419 L10.3225806,9.67741935 L14.8387097,9.67741935 C14.8064516,8.4516129 14.6774194,7.29032258 14.4516129,6.22580645 Z" id="Path"></path>
                <path d="M14.2903226,14.4193548 C13.1290323,13.8709677 11.7741935,13.5806452 10.3225806,13.5483871 L10.3225806,19.9354839 C12.1935484,19 13.5806452,17.0322581 14.2903226,14.4193548 Z" id="Path"></path>
            </g>
        </g>
    </g>
</svg>