<?xml version="1.0" encoding="UTF-8"?>
<svg width="9px" height="18px" viewBox="0 0 9 18" version="1.1" xmlns="http://www.w3.org/2000/svg" xmlns:xlink="http://www.w3.org/1999/xlink">
    <!-- Generator: Sketch 64 (93537) - https://sketch.com -->
    <title>543534534</title>
    <desc>Created with Sketch.</desc>
    <g id="Wireframes" stroke="none" stroke-width="1" fill="none" fill-rule="evenodd">
        <g id="Home---Idle" transform="translate(-996.000000, -47.000000)" fill="#333F48" fill-rule="nonzero">
            <g id="543534534" transform="translate(996.000000, 47.000000)">
                <path d="M8.769,8.389 L1.823,0.807 C1.519,0.411 0.895,0.411 0.512,0.736 C0.329746578,0.885822338 0.217870103,1.10458238 0.203082366,1.34004865 C0.188294629,1.57551492 0.271922911,1.80655304 0.434,1.978 L6.034,8.083 L6.85852051,8.97552804 L6.033,9.867 L0.434,15.972 C0.067,16.313 0.17,16.901 0.555,17.225 C0.941,17.549 1.521,17.526 1.823,17.143 L8.77,9.56 C8.956,9.367 8.99,9.156 9.001,8.975 C8.982,8.785 8.9,8.532 8.769,8.389 Z" id="Path"></path>
            </g>
        </g>
    </g>
</svg>