<svg xmlns="http://www.w3.org/2000/svg" width="199" height="39" viewBox="0 0 199 39"><defs><clipPath id="53kya"><path d="M0 .17h46.622v38.332H0z"/></clipPath><clipPath id="53kyb"><path d="M88.817 4.13v4.888h-5.749V25.85h-5.813V9.018h-5.75V4.131zm7.793 0v16.833h9.231v4.887H90.797V4.13zm71.555 0v4.888h-5.752V25.85h-5.817V9.018h-5.752V4.131zm2.098 0h5.823v21.72h-5.823zm8.017 10.86c0-6.547 5.174-11.114 10.987-11.114 4.696 0 7.57 1.98 9.391 4.663l-4.376 2.97c-.83-1.277-2.172-2.587-4.919-2.587-3.194 0-5.142 2.651-5.142 6.069 0 3.417 2.012 6.1 5.334 6.1 2.81 0 4.184-1.277 5.11-3.002l4.472 2.874c-2.14 3.61-5.142 5.175-9.55 5.175-6.1 0-11.307-4.6-11.307-11.147zM129.316 3.845c0-.117.036-.221.142-.221.069 0 .167.043.305.157l13.632 11.243V4.13h5.458v22.038c0 .256-.095.352-.446.064l-13.631-11.21V25.85h-5.46zm-68 15.8h4.398l-2.23-5.037zm2.236-15.896c.048-.112.12-.168.192-.168.072 0 .144.056.191.168l10.54 22.102h-6.004l-.83-1.852h-8.177l-.798 1.852H52.98zm51.232 15.896h4.407l-2.236-5.037zm2.23-15.896c.049-.112.12-.168.192-.168.072 0 .144.056.192.168l10.535 22.102h-6.002l-.83-1.852h-8.173l-.798 1.852h-5.683z"/></clipPath></defs><g><g><g  ><g><g  /><g clip-path="url(#53kya)"  ><path fill="#fff" d="M39.676 26.084c-2.98.426-6.544 1.393-8.963 2.191-1.946.642-5.678 1.788-8.818 2.25-.991.146-2.04.218-3.177.218-.479 0-.972-.013-1.484-.039-2.48-.124-4.305-1.626-4.648-3.828-.254-1.623.01-3.244.783-4.819 1.235-2.515 3.154-4.61 5.705-6.228 1.332-.844 4.108-2.592 6.555-2.574 2.482.027 4.426 1.957 4.426 4.395 0 2.423-1.988 4.395-4.433 4.395a4.404 4.404 0 0 1-3.86-2.237c-.32.18-.632.367-.931.557-1.896 1.208-3.304 2.49-4.304 3.921-.712 1.019-1.032 1.865-1.037 2.741-.006 1.11.548 1.661 1.852 1.846 1.624.232 3.242-.032 4.807-.287 2.01-.327 4.051-1.041 6.026-1.732a94.98 94.98 0 0 1 2.307-.786c.83-.266 1.679-.555 2.5-.835 1.692-.576 3.436-1.17 5.177-1.625L24.026.564a.825.825 0 0 0-1.407 0L.13 37.19c-.411.67.227 1.49.976 1.256 4.38-1.37 14.466-4.242 22.121-4.242 7.682 0 17.904 2.892 22.3 4.257.743.23 1.375-.584.968-1.247z"/></g></g><g><path fill="#fff" d="M88.817 4.13v4.888h-5.749V25.85h-5.813V9.018h-5.75V4.13zm7.793 0v16.833h9.231v4.887H90.797V4.13zm71.555 0v4.888h-5.752V25.85h-5.817V9.018h-5.752V4.13zm2.098 0h5.823v21.72h-5.823zm8.017 10.86c0-6.547 5.174-11.114 10.988-11.114 4.695 0 7.57 1.98 9.39 4.663l-4.376 2.97c-.83-1.277-2.171-2.587-4.919-2.587-3.193 0-5.142 2.651-5.142 6.068 0 3.418 2.012 6.101 5.334 6.101 2.81 0 4.184-1.278 5.11-3.002l4.472 2.874c-2.14 3.61-5.142 5.175-9.55 5.175-6.1 0-11.307-4.6-11.307-11.148zM129.316 3.844c0-.117.036-.221.142-.221.069 0 .168.043.305.157l13.632 11.243V4.13h5.459v22.038c0 .256-.096.352-.447.064l-13.631-11.21V25.85h-5.46zm-68 15.8h4.398l-2.23-5.037zm2.236-15.896c.048-.112.12-.168.192-.168.072 0 .144.056.192.168l10.54 22.102H68.47l-.83-1.852h-8.177l-.798 1.852H52.98zm51.232 15.896h4.408l-2.236-5.037zm2.23-15.896c.049-.112.12-.168.192-.168.072 0 .144.056.192.168l10.535 22.102h-6.002l-.83-1.852h-8.172l-.799 1.852h-5.683z"/></g></g><g  ><g/><g clip-path="url(#53kyb)"><path fill="#fff" d="M52.98 26.521h146.157V3.58H52.98z"/></g></g><g  ><path fill="#fff" d="M194.685 33.441c.316.612.856.938 1.57.938.734 0 1.224-.347 1.224-.907 0-.653-.49-.877-1.101-1.153l-.48-.213c-1.02-.449-1.713-.98-1.713-2.06 0-1.06.785-1.805 1.928-1.805.887 0 1.539.357 1.977 1.091l-.825.54c-.265-.449-.612-.673-1.132-.673-.561 0-.887.327-.887.806 0 .55.336.765 1.091 1.101l.479.215c1.05.468 1.744.948 1.744 2.12 0 1.274-.98 1.917-2.295 1.917-1.172 0-2.029-.571-2.497-1.458zm-20.282-2.732v4.557h-1.017v-7.035h.08l4.438 4.66v-4.558h1.018v7.035h-.081zm-17.81 2.62c.01 0-1.132-2.743-1.132-2.743l-1.152 2.743zm-3.09 1.937h-1.101l3.038-7.076h.062l3.048 7.076h-1.152l-.398-.969h-3.1zm-20.32-6.933h1.151l1.979 4.66 1.916-4.66h1.102l-2.998 7.035h-.061zm-15.03 4.996c.01 0-1.131-2.743-1.131-2.743l-1.152 2.743zm-3.09 1.937h-1.1l3.038-7.076h.061l3.049 7.076h-1.152l-.398-.969h-3.1zm-18.566-2.59c1.336 0 1.876-.632 1.876-1.692 0-1.05-.55-1.683-1.876-1.683h-.643v3.375zm3.018 2.6H98.22l-1.183-1.685c-.153.021-.326.031-.5.031h-.683v1.654h-1.09v-6.943h1.774c1.906 0 2.957 1.052 2.957 2.654 0 1.073-.48 1.9-1.387 2.318zM77.97 33.33c.01 0-1.132-2.743-1.132-2.743l-1.152 2.743zm-3.09 1.937H73.78l3.038-7.076h.062l3.048 7.076h-1.152l-.398-.969h-3.1zm-18.393.092c-1.979 0-3.508-1.509-3.508-3.559 0-2.049 1.56-3.558 3.538-3.558 1.285 0 2.172.5 2.773 1.346l-.836.591c-.458-.622-1.05-.948-1.967-.948-1.377 0-2.376 1.101-2.376 2.57 0 1.498 1.02 2.569 2.416 2.569.898 0 1.56-.337 2.08-1.01l.847.582c-.714.948-1.622 1.417-2.967 1.417z"/></g></g></g></svg>
