<svg xmlns="http://www.w3.org/2000/svg" width="274" height="53" viewBox="0 0 274 53"><defs><clipPath id="b5eea"><path d="M0 .24h64.105v52.706H0z"/></clipPath><clipPath id="b5eeb"><path d="M122.135 5.677v6.72h-7.907v23.144h-7.997V12.397h-7.908v-6.72zm10.703 0v23.145h12.686v6.72h-20.675V5.676zm98.388 0v6.72h-7.908v23.144h-7.997V12.397h-7.908v-6.72zm2.888 0h8.003v29.864h-8.003zm11.024 14.933c0-9.003 7.114-15.284 15.107-15.284 6.456 0 10.408 2.723 12.912 6.412l-6.017 4.085c-1.142-1.757-2.986-3.558-6.763-3.558-4.392 0-7.07 3.646-7.07 8.345 0 4.699 2.766 8.388 7.334 8.388 3.864 0 5.753-1.757 7.026-4.128l6.149 3.952c-2.943 4.963-7.07 7.115-13.131 7.115-8.389 0-15.547-6.324-15.547-15.327zM177.812 5.283c0-.16.05-.304.195-.304.095 0 .23.06.42.216l18.754 15.459V5.677h7.509V35.98c0 .352-.132.484-.615.089l-18.752-15.415V35.54h-7.51zm-93.5 21.739h6.061l-3.074-6.94zM87.388 5.15c.066-.153.165-.23.263-.23.099 0 .198.077.264.23l14.493 30.391H94.15l-1.142-2.547H81.766l-1.098 2.547H72.85zm70.443 21.872h6.06l-3.074-6.94zM160.9 5.15c.066-.153.164-.23.263-.23s.197.077.263.23l14.489 30.391h-8.254l-1.142-2.547H155.28l-1.097 2.547h-7.815z"/></clipPath></defs><g><g ><g><g><g/><g clip-path="url(#b5eea)"><path fill="#174194" d="M54.554 35.872c-4.097.586-8.997 1.916-12.324 3.013-2.675.882-7.807 2.458-12.125 3.093-1.363.2-2.805.3-4.368.3-.658 0-1.337-.018-2.04-.053-3.41-.17-5.92-2.237-6.392-5.264-.348-2.231.015-4.461 1.078-6.626 1.697-3.459 4.336-6.34 7.844-8.564 1.83-1.16 5.649-3.564 9.012-3.54 3.413.038 6.086 2.692 6.086 6.044 0 3.332-2.733 6.043-6.095 6.043-2.237 0-4.238-1.182-5.306-3.075-.441.247-.87.504-1.281.766-2.608 1.66-4.544 3.424-5.919 5.39-.979 1.402-1.418 2.564-1.425 3.77-.009 1.525.753 2.284 2.546 2.538 2.233.319 4.458-.044 6.61-.395 2.763-.45 5.57-1.431 8.285-2.381 1.042-.365 2.12-.743 3.172-1.08 1.141-.368 2.309-.765 3.438-1.15 2.327-.792 4.724-1.607 7.118-2.234L33.036.782a1.135 1.135 0 0 0-1.934 0L.177 51.143c-.565.92.312 2.05 1.343 1.727 6.02-1.884 19.89-5.833 30.416-5.833 10.563 0 24.617 3.977 30.662 5.853 1.022.318 1.891-.802 1.332-1.715z"/></g></g><g ><path fill="#fff" d="M122.136 5.677v6.72h-7.908v23.144h-7.997V12.397h-7.908v-6.72zm10.702 0v23.145h12.686v6.72H124.85V5.676zm98.388 0v6.72h-7.908v23.144h-7.997V12.397h-7.908v-6.72zm2.888 0h8.004v29.864h-8.004zm11.024 14.932c0-9.002 7.114-15.283 15.108-15.283 6.455 0 10.408 2.723 12.911 6.412l-6.017 4.084c-1.141-1.756-2.986-3.557-6.763-3.557-4.391 0-7.07 3.646-7.07 8.344 0 4.7 2.766 8.389 7.334 8.389 3.864 0 5.753-1.757 7.026-4.128l6.149 3.952c-2.943 4.963-7.07 7.115-13.131 7.115-8.389 0-15.547-6.324-15.547-15.328zM177.813 5.283c0-.16.048-.304.194-.304.095 0 .23.06.42.216l18.754 15.459V5.677h7.509V35.98c0 .352-.132.484-.615.089l-18.752-15.415V35.54h-7.51zm-93.5 21.739h6.06l-3.074-6.94zM87.387 5.15c.066-.153.165-.23.263-.23.099 0 .198.077.264.23l14.493 30.391H94.15l-1.142-2.547H81.766l-1.098 2.547H72.85zm70.443 21.872h6.061l-3.074-6.94zM160.9 5.15c.066-.153.164-.23.263-.23s.197.077.263.23l14.489 30.391h-8.254l-1.142-2.547H155.28l-1.097 2.547h-7.815z"/></g></g><g><g /><g clip-path="url(#b5eeb)" ><path fill="#174194" d="M72.85 36.464h200.966V4.92H72.85z"/></g></g><g><path fill="#174194" d="M267.694 45.99c.435.842 1.178 1.29 2.16 1.29 1.009 0 1.682-.477 1.682-1.248 0-.897-.673-1.206-1.514-1.584l-.659-.294c-1.402-.617-2.355-1.346-2.355-2.832 0-1.458 1.079-2.482 2.65-2.482 1.219 0 2.116.49 2.719 1.5l-1.136.744c-.364-.618-.84-.926-1.556-.926-.771 0-1.22.449-1.22 1.107 0 .758.463 1.052 1.5 1.515l.66.294c1.443.645 2.397 1.304 2.397 2.917 0 1.751-1.346 2.635-3.155 2.635-1.612 0-2.79-.785-3.434-2.005zm-27.886-3.757V48.5h-1.4v-9.674h.111l6.105 6.407v-6.267h1.4v9.674h-.112zm-24.49 3.613c.014 0-1.557-3.781-1.557-3.781l-1.584 3.781zm-4.249 2.654h-1.514l4.178-9.73h.084l4.192 9.73h-1.584l-.547-1.332h-4.262zm-27.94-9.534h1.583l2.72 6.408 2.636-6.408h1.514l-4.122 9.674h-.084zm-20.666 6.88c.014 0-1.555-3.781-1.555-3.781l-1.585 3.781zm-4.246 2.654h-1.515l4.182-9.73h.084l4.197 9.73h-1.586l-.548-1.332h-4.266zm-25.529-3.561c1.842 0 2.587-.87 2.587-2.328 0-1.444-.759-2.313-2.587-2.313h-.886v4.64zm4.158 3.56h-1.784l-1.628-2.313c-.211.029-.45.043-.688.043h-.942v2.27h-1.501v-9.533h2.443c2.625 0 4.071 1.445 4.071 3.645 0 1.473-.66 2.608-1.909 3.183zm-29.634-2.653c.014 0-1.556-3.781-1.556-3.781l-1.584 3.781zm-4.248 2.654h-1.514l4.178-9.73h.084l4.192 9.73h-1.584l-.547-1.332h-4.262zm-25.291.126c-2.72 0-4.823-2.075-4.823-4.893 0-2.818 2.145-4.893 4.865-4.893 1.767 0 2.986.687 3.813 1.85l-1.15.814c-.63-.855-1.444-1.304-2.705-1.304-1.893 0-3.267 1.514-3.267 3.533 0 2.06 1.402 3.533 3.323 3.533 1.234 0 2.145-.463 2.86-1.388l1.163.8c-.98 1.303-2.229 1.948-4.08 1.948z"/></g></g></g></svg>
