<?xml version="1.0" encoding="UTF-8"?>
<svg width="235px" height="55px" viewBox="0 0 235 55" version="1.1" xmlns="http://www.w3.org/2000/svg" xmlns:xlink="http://www.w3.org/1999/xlink">
    <!-- Generator: Sketch 58 (84663) - https://sketch.com -->
    <title>COP_LO_HOR_MARSDEN_C_POS</title>
    <desc>Created with Sketch.</desc>
    <g id="Symbols" stroke="none" stroke-width="1" fill="none" fill-rule="evenodd">
        <g id="Footer" transform="translate(-110.000000, -42.000000)" fill="#001D35">
            <g id="COP_LO_HOR_MARSDEN_C_POS" transform="translate(110.000000, 42.000000)">
                <path d="M104.626674,39.40875 L102.500694,39.40875 L102.498462,39.409308 C102.04146,39.409308 101.90196,39.614094 101.90196,39.614094 L101.902518,33.348312 L104.794074,33.348312 C107.074062,33.348312 108.352998,34.543548 108.352998,36.35091 C108.352998,38.186172 107.046162,39.40875 104.626674,39.40875 Z M108.32454,42.38289 C110.854512,41.549238 112.38399,39.60405 112.38399,36.434052 C112.38399,32.653044 110.271402,29.87253 105.516684,29.87253 L98.038368,29.87253 L98.038368,49.61178 L101.902518,49.61178 L101.902518,44.052426 C101.915352,43.390638 102.453264,42.857748 103.1184,42.857748 L103.1184,42.856074 L104.182506,42.856074 L108.602424,49.61178 L113.217642,49.61178 L108.32454,42.38289 L108.32454,42.38289 Z" id="Fill-1"></path>
                <path d="M121.76397,39.40875 L119.63799,39.40875 L119.635758,39.409308 C119.178756,39.409308 119.039256,39.614094 119.039256,39.614094 L119.039814,33.348312 L121.93137,33.348312 C124.211358,33.348312 125.489736,34.543548 125.489736,36.35091 C125.489736,38.186172 124.183458,39.40875 121.76397,39.40875 Z M125.461836,42.38289 C127.991808,41.549238 129.521286,39.60405 129.521286,36.434052 C129.521286,32.653044 127.408698,29.87253 122.65398,29.87253 L115.175664,29.87253 L115.175664,49.61178 L119.039814,49.61178 L119.039814,44.052426 C119.05209,43.390638 119.59056,42.857748 120.255696,42.857748 L120.255696,42.856074 L121.319244,42.856074 L125.73972,49.61178 L130.354938,49.61178 L125.461836,42.38289 L125.461836,42.38289 Z" id="Fill-2"></path>
                <path d="M89.535564,42.328764 C89.535564,42.328764 85.281372,42.328764 85.278024,42.328764 C84.821022,42.328764 84.681522,42.534108 84.681522,42.534108 L87.364386,34.571448 L87.420186,34.571448 L90.132624,42.534108 C90.132624,42.534108 89.993124,42.328764 89.535564,42.328764 Z M89.25489,29.87253 L85.501782,29.87253 L78.190308,49.61178 L82.2771,49.61178 L83.241324,46.759842 C83.453364,46.128744 84.039822,45.670626 84.741228,45.66393 L90.071244,45.66393 C90.77544,45.670626 91.364688,46.13265 91.574496,46.767654 L92.53593,49.61178 L96.622164,49.61178 L89.25489,29.87253 L89.25489,29.87253 Z" id="Fill-3"></path>
                <path d="M183.908988,42.328764 C183.908988,42.328764 179.654238,42.328764 179.65089,42.328764 C179.193888,42.328764 179.054388,42.534108 179.054388,42.534108 L181.737252,34.571448 L181.793052,34.571448 L184.50549,42.534108 C184.50549,42.534108 184.36599,42.328764 183.908988,42.328764 Z M183.628314,29.87253 L179.87409,29.87253 L172.563174,49.61178 L176.649966,49.61178 L177.61419,46.759842 C177.82623,46.128744 178.412688,45.670626 179.114094,45.66393 L184.44411,45.66393 C185.148306,45.670626 185.737554,46.13265 185.947362,46.767654 L186.908796,49.61178 L190.99503,49.61178 L183.628314,29.87253 L183.628314,29.87253 Z" id="Fill-4"></path>
                <path d="M227.475954,42.328764 C227.473164,42.328764 223.221762,42.328764 223.218414,42.328764 C222.761412,42.328764 222.621354,42.534108 222.621354,42.534108 L225.304218,34.571448 L225.360018,34.571448 L228.072456,42.534108 C228.072456,42.534108 227.932956,42.328764 227.475954,42.328764 Z M227.19528,29.87253 L223.441614,29.87253 L216.130698,49.61178 L220.21749,49.61178 L221.181156,46.759842 C221.393754,46.128744 221.980212,45.670626 222.68106,45.66393 L228.011634,45.66393 C228.71583,45.670626 229.30452,46.13265 229.514328,46.767654 L230.47632,49.61178 L234.561996,49.61178 L227.19528,29.87253 L227.19528,29.87253 Z" id="Fill-5"></path>
                <path d="M142.536078,42.328764 C142.533288,42.328764 138.281328,42.328764 138.278538,42.328764 C137.821536,42.328764 137.681478,42.534108 137.681478,42.534108 L140.364342,34.571448 L140.420142,34.571448 L143.133138,42.534108 C143.133138,42.534108 142.99308,42.328764 142.536078,42.328764 Z M142.255404,29.87253 L138.501738,29.87253 L131.190264,49.61178 L135.277614,49.61178 L136.24128,46.759842 C136.453878,46.128744 137.040336,45.670626 137.741184,45.66393 L143.071758,45.66393 C143.775954,45.670626 144.364644,46.13265 144.57501,46.767654 L145.535886,49.61178 L149.62212,49.61178 L142.255404,29.87253 L142.255404,29.87253 Z" id="Fill-6"></path>
                <path d="M64.364742,15.282504 C64.364742,9.638892 67.978908,5.106816 74.428272,5.106816 C77.152986,5.106816 80.128242,6.24681 82.29663,8.887824 L79.432974,11.334654 C78.26508,9.972576 76.486176,8.83314 74.428272,8.83314 C71.008848,8.83314 68.451534,11.334654 68.451534,15.282504 C68.451534,18.95247 70.897806,21.593484 74.428272,21.593484 C76.486176,21.593484 78.26508,20.536632 79.432974,19.091412 L82.29663,21.565584 C80.599752,23.678172 77.931396,25.29135 74.428272,25.29135 C69.034644,25.29135 64.364742,21.78711 64.364742,15.282504" id="Fill-7"></path>
                <polygon id="Fill-8" points="84.135798 25.09605 88.055748 25.09605 88.055748 5.3568 84.135798 5.3568"></polygon>
                <polyline id="Fill-9" points="94.708782 8.859924 89.666136 8.859924 89.666136 5.3568 103.671378 5.3568 103.671378 8.859924 98.600832 8.859924 98.600832 25.09605 94.708782 25.09605 94.708782 8.859924"></polyline>
                <polyline id="Fill-10" points="121.388994 5.3568 114.80013 16.422498 114.80013 25.09605 110.852838 25.09605 110.852838 16.422498 104.318658 5.3568 108.794934 5.3568 112.825926 12.55779 112.881726 12.55779 116.857476 5.3568 121.388994 5.3568"></polyline>
                <path d="M144.246348,15.226704 C144.246348,11.501496 141.688476,8.776782 138.296394,8.776782 C134.738028,8.776782 132.263856,11.63988 132.263856,15.226704 C132.263856,18.81297 134.738028,21.677184 138.296394,21.677184 C141.688476,21.677184 144.246348,18.92457 144.246348,15.226704 Z M128.204964,15.226704 C128.204964,9.36045 132.291756,5.106816 138.268494,5.106816 C144.079506,5.106816 148.30524,9.194166 148.30524,15.226704 C148.30524,21.2598 144.079506,25.31925 138.268494,25.31925 C132.291756,25.31925 128.204964,21.065058 128.204964,15.226704 L128.204964,15.226704 Z" id="Fill-11"></path>
                <polyline id="Fill-12" points="171.056016 29.87253 171.056016 49.61178 167.191866 49.61178 167.191866 37.351962 167.136066 37.351962 162.327222 45.858672 159.796692 45.858672 154.986732 37.351962 154.93149 37.351962 154.93149 49.61178 151.03944 49.61178 151.03944 29.87253 154.986732 29.87253 161.048286 41.104512 161.104086 41.104512 167.136066 29.87253 171.056016 29.87253"></polyline>
                <polyline id="Fill-13" points="193.928436 33.376212 188.885232 33.376212 188.885232 29.87253 202.891032 29.87253 202.891032 33.376212 197.819928 33.376212 197.819928 49.61178 193.928436 49.61178 193.928436 33.376212"></polyline>
                <polyline id="Fill-14" points="209.257254 33.376212 203.808384 33.376212 203.808384 29.87253 218.21985 29.87253 218.21985 33.376212 213.149304 33.376212 213.149304 49.61178 209.257254 49.61178 209.257254 33.376212"></polyline>
                <path d="M71.620974,39.38085 L69.6384,39.38085 C69.636168,39.38085 69.634494,39.381966 69.634494,39.381966 C69.17526,39.381966 69.035202,39.586752 69.035202,39.586752 L69.03576,39.38085 L69.034644,39.38085 L69.034644,33.348312 L71.787258,33.348312 C74.066688,33.348312 75.289824,34.543548 75.289824,36.35091 C75.289824,38.186172 74.066688,39.38085 71.620974,39.38085 Z M72.482526,29.87253 L65.170494,29.87253 L65.170494,49.61178 L69.034644,49.61178 L69.034644,44.075862 L69.036876,44.075862 C69.036876,43.402914 69.5826,42.857748 70.25499,42.857748 L70.25499,42.856074 L72.1215,42.856074 C76.458276,42.856074 79.349274,40.770828 79.349274,36.434052 C79.349274,32.653044 77.264028,29.87253 72.482526,29.87253 L72.482526,29.87253 Z" id="Fill-15"></path>
                <path d="M163.82322,5.3568 L150.728634,5.3568 L150.728634,25.09605 L154.592784,25.09605 L154.592784,18.833616 L154.593342,18.833616 C154.593342,18.169038 155.126232,17.630568 155.787462,17.617734 L162.293742,17.617734 L162.293742,14.11461 L155.190402,14.11461 C155.190402,14.11461 155.189286,14.115168 155.188728,14.115168 C154.731726,14.115168 154.591668,14.320512 154.591668,14.320512 L154.592784,8.859924 L163.82322,8.859924 L163.82322,5.3568" id="Fill-16"></path>
                <path d="M27.675684,49.32162 C15.613956,49.32162 5.83668,39.543786 5.83668,27.482058 C5.83668,15.42033 15.613956,5.642496 27.675684,5.642496 C39.737412,5.642496 49.515246,15.42033 49.515246,27.482058 C49.515246,39.543786 39.737412,49.32162 27.675684,49.32162 Z M27.675684,0.272304 C12.648186,0.272304 0.46593,12.45456 0.46593,27.482058 C0.46593,42.509556 12.648186,54.691812 27.675684,54.691812 C42.703182,54.691812 54.885438,42.509556 54.885438,27.482058 C54.885438,12.45456 42.703182,0.272304 27.675684,0.272304 L27.675684,0.272304 Z" id="Fill-17"></path>
                <path d="M11.329632,18.034002 C11.990862,18.034002 11.750364,18.764982 12.171654,18.764982 C13.15485,18.764982 12.922722,16.97715 10.999854,16.97715 C10.800648,16.97715 10.383264,17.092098 10.312956,17.181378 C10.31184,17.183052 10.310724,17.185842 10.309608,17.188074 C11.640996,17.26731 10.704114,18.034002 11.329632,18.034002" id="Fill-18"></path>
                <path d="M9.37161,20.504826 L9.734868,23.897466 L9.503856,24.095556 C9.093168,24.115086 8.70759,24.11397 8.362746,24.105042 L9.37161,20.504826 Z M10.890486,22.75524 C10.596978,23.03145 10.383822,23.390244 10.288962,23.79591 L9.917334,23.79591 L9.55854,20.440098 L10.890486,22.75524 Z M12.312828,22.546548 C13.26087,22.546548 14.032584,23.31882 14.032584,24.266304 L13.760838,24.266304 C13.760838,23.468364 13.110768,22.818852 12.312828,22.818852 C11.514888,22.818852 10.865934,23.468364 10.865934,24.266304 L10.593072,24.266304 C10.593072,23.31882 11.364786,22.546548 12.312828,22.546548 Z M15.02415,20.366442 L15.418098,24.051474 C15.168672,24.084954 15.024708,24.101694 15.024708,24.101694 L14.617368,23.79591 L14.336694,23.79591 C14.271408,23.515794 14.148648,23.257998 13.982922,23.03424 L15.02415,20.366442 Z M17.1864,23.767452 C17.1864,23.767452 15.832692,23.99679 15.608376,24.026922 L15.227262,20.45907 L17.1864,23.767452 Z M7.72551,25.261218 C9.071406,25.30251 10.254366,25.499484 11.587428,25.253406 C13.437756,24.91191 16.883406,25.295256 16.883406,25.295256 C16.883406,25.295256 16.91298,25.11558 16.934184,25.011234 C16.939764,24.983892 16.947576,24.954876 16.955388,24.926418 C17.188074,24.914142 17.419086,24.911352 17.648982,24.924744 C18.064692,24.94818 18.476496,25.014582 18.889416,25.093818 L19.200222,25.15185 C19.306242,25.16859 19.413936,25.192584 19.52163,25.20207 C19.527768,25.202628 19.533348,25.203186 19.538928,25.203186 L19.654992,24.99003 C19.620954,24.985008 19.586358,24.980544 19.55232,24.974406 C19.44909,24.961572 19.349208,24.938694 19.247094,24.92028 C19.142748,24.899076 19.03896,24.876198 18.933498,24.856668 C18.513882,24.781338 18.084222,24.723306 17.651214,24.737814 C17.429688,24.743394 17.209836,24.767946 16.994448,24.80868 C17.00226,24.785802 17.00784,24.770736 17.00784,24.770736 C17.112744,24.478344 17.268984,24.204924 17.441964,23.947686 L19.591938,23.470038 L19.593054,23.314356 L17.38728,23.72895 L15.1776,19.998162 L14.949936,17.863812 L14.757984,17.8839 C14.757984,17.8839 14.980626,19.963566 14.975046,19.961334 L13.842864,22.863492 C13.532058,22.525902 13.110768,22.290984 12.637584,22.216212 C12.636468,22.197798 12.63591,22.179942 12.634794,22.161528 C12.632004,22.111308 12.505338,19.904418 12.503106,19.872612 L12.503106,19.862568 C12.505338,19.843596 12.591828,19.684566 12.609126,19.649412 C12.625866,19.6137 12.620286,19.584126 12.59406,19.55511 C12.563928,19.522746 12.480228,19.456344 12.47688,19.456902 L11.72079,19.456902 C11.72079,19.456902 11.640996,19.528326 11.61477,19.56348 C11.590776,19.594728 11.588544,19.625418 11.60919,19.658898 C11.629836,19.692378 11.732508,19.841922 11.736972,19.859778 L11.834622,22.246344 C11.539998,22.316094 11.269926,22.447782 11.038914,22.628016 L9.507762,19.965798 L9.394488,18.908946 C9.341478,19.021662 9.288468,19.134936 9.23769,19.248768 L9.316926,19.98756 L8.165772,24.098346 C8.022924,24.093324 7.891794,24.085512 7.769034,24.077142 C7.702632,24.467184 7.64739,24.860574 7.603308,25.25787 L7.72551,25.261218 L7.72551,25.261218 Z" id="Fill-19"></path>
                <path d="M28.737,46.473588 C28.972476,46.462428 29.21409,46.419462 29.427804,46.298376 C29.534382,46.239786 29.630916,46.159992 29.704572,46.0629 C29.775438,45.965808 29.828448,45.85086 29.8273493,45.73368 C29.732472,45.945162 29.548332,46.071828 29.355822,46.147716 C29.159964,46.222488 28.944576,46.25262 28.729746,46.258758 C28.514916,46.267686 28.29897,46.24704 28.08414,46.20519 C27.869868,46.161666 27.656712,46.099728 27.44244,46.01547 C27.60984,46.175616 27.819648,46.28889 28.040616,46.366452 C28.261584,46.445688 28.49985,46.47861 28.737,46.473588" id="Fill-20"></path>
                <path d="M32.310432,44.093718 C32.410314,44.088696 32.50908,44.07363 32.608962,44.059122 C32.704938,44.044614 32.79924,44.027874 32.895216,44.015598 C33.659676,43.907346 34.433064,43.9146 35.204778,43.978212 C35.592588,44.004438 35.973702,44.051868 36.366534,44.091486 C36.757692,44.124966 37.15164,44.149518 37.546146,44.139474 C37.940652,44.133336 38.335716,44.092602 38.721852,44.011134 C39.106872,43.927434 39.482406,43.803558 39.836736,43.639506 C39.091806,43.88112 38.317302,43.975422 37.546704,43.95087 C37.160568,43.939152 36.77499,43.910136 36.38997,43.863822 C36.007182,43.818624 35.613792,43.768404 35.223192,43.737714 C34.831476,43.710372 34.437528,43.691958 34.042464,43.704792 C33.647958,43.718742 33.252894,43.755012 32.865084,43.830342 C32.767992,43.84764 32.671458,43.869402 32.575482,43.888932 C32.482296,43.906788 32.38911,43.925202 32.294808,43.93692 C32.105646,43.96203 31.913136,43.974306 31.720626,43.972632 C31.33449,43.974864 30.94668,43.930224 30.563334,43.854336 C30.74859,43.919064 30.938868,43.96761 31.131378,44.005554 C31.323888,44.044056 31.51863,44.072514 31.715604,44.09037 C31.912578,44.106552 32.111226,44.105994 32.310432,44.093718" id="Fill-21"></path>
                <path d="M29.395998,46.770444 C29.257614,46.815642 29.113092,46.840752 28.96578,46.849122 C28.67004,46.865304 28.373184,46.831266 28.064052,46.776582 C28.194066,46.868094 28.344168,46.926684 28.498176,46.965744 C28.6533,47.004246 28.81512,47.018754 28.976382,47.008152 C29.136528,46.995318 29.299464,46.95849 29.44566,46.882044 C29.58795,46.80504 29.722428,46.682838 29.760372,46.524924 C29.664954,46.650474 29.531034,46.720782 29.395998,46.770444" id="Fill-22"></path>
                <path d="M40.362372,31.425444 C40.850064,31.665384 41.394114,31.790376 41.94207,31.827204 C42.495048,31.8618 43.040772,31.78368 43.572546,31.70835 C43.837596,31.668732 44.09874,31.639716 44.361558,31.640274 C44.625492,31.635252 44.88552,31.66371 45.155592,31.691052 C45.425106,31.720068 45.696852,31.740156 45.969714,31.742388 C46.106424,31.741272 46.243692,31.736808 46.379844,31.71951 C46.516554,31.70277 46.649358,31.66929 46.778256,31.627998 C46.508742,31.664826 46.242576,31.657572 45.976968,31.624092 C45.710802,31.594518 45.445752,31.54932 45.18126,31.50468 C44.916768,31.455576 44.639442,31.419864 44.363232,31.412052 C44.085906,31.40424 43.80858,31.433814 43.539066,31.469526 C43.27011,31.51026 43.006176,31.55211 42.741684,31.5828 C42.476076,31.615722 42.211584,31.637484 41.94765,31.639716 C41.418108,31.6386 40.883544,31.571082 40.362372,31.425444" id="Fill-23"></path>
                <path d="M37.843002,41.42034 C37.03167,41.36175 36.228708,41.221134 35.403984,41.14971 C34.99218,41.11902 34.57647,41.10228 34.161876,41.12739 C33.746724,41.150826 33.336036,41.209416 32.932602,41.280282 C32.525262,41.347242 32.13243,41.439312 31.72788,41.427036 C31.326678,41.42592 30.916548,41.358402 30.548268,41.17761 C30.7179,41.294232 30.912084,41.37291 31.110732,41.430942 C31.30938,41.489532 31.515282,41.52636 31.722858,41.544774 C31.930434,41.562072 32.139684,41.559282 32.347818,41.539752 C32.557068,41.522454 32.755716,41.489532 32.959944,41.465538 C33.36561,41.415876 33.768486,41.36454 34.17192,41.353938 C34.575354,41.338872 34.979904,41.354496 35.384454,41.389092 C35.788446,41.42034 36.192996,41.47335 36.60201,41.51799 C37.010466,41.558166 37.420596,41.599458 37.833516,41.609502 C38.245878,41.623452 38.661588,41.608386 39.07116,41.555376 C39.479616,41.49846 39.884166,41.418108 40.278114,41.302602 C39.467898,41.436522 38.65266,41.486184 37.843002,41.42034" id="Fill-24"></path>
                <path d="M36.908352,36.36207 C36.840834,36.361512 36.773874,36.36207 36.706356,36.361512 L36.622098,36.27558 L36.70524,35.906742 C36.748764,36.000486 36.817956,36.09702 36.925092,36.185184 C36.921186,36.249912 36.91449,36.309618 36.908352,36.36207 Z M45.985338,36.124362 C44.27451,36.241542 42.507882,36.310734 40.740696,36.34254 C40.708332,36.193554 40.681548,36.04401 40.665366,35.892792 C40.644162,35.693586 40.635792,35.493264 40.634118,35.292384 C40.629654,34.801902 40.614588,34.245576 40.503546,33.723288 C40.501314,33.713244 40.498524,33.701526 40.495176,33.690924 C40.762458,33.65298 41.027508,33.603876 41.289768,33.54417 C41.697666,33.434802 42.12621,33.4242 42.549174,33.479442 C42.136254,33.372306 41.69376,33.358356 41.268564,33.432012 C40.996818,33.473862 40.724514,33.506226 40.45221,33.529662 C40.41594,33.40188 40.372416,33.25959 40.336146,33.171426 C40.278114,33.032484 40.165956,32.792544 40.039848,32.62905 C39.890304,32.4198 39.681612,32.259096 39.451158,32.14917 C39.312774,32.083326 39.160998,32.038686 39.017034,31.982328 C38.874744,31.92597 38.734128,31.8618 38.60523,31.778658 C38.551104,31.743504 38.49921,31.70556 38.450664,31.66371 C38.38482,31.607352 38.324556,31.54374 38.275452,31.472316 C38.310048,31.431024 38.33739,31.3875 38.349108,31.353462 C38.37645,31.280364 38.375892,31.26753 38.428344,31.19499 C38.49084,31.110732 38.484144,31.042656 38.499768,30.951144 C38.51037,30.886416 38.522088,30.845124 38.515392,30.78207 C38.505906,30.690558 38.495862,30.597372 38.531016,30.509766 C38.567844,30.407094 38.539386,30.340692 38.50758,30.244158 C38.500884,30.225186 38.498094,30.21012 38.496978,30.195612 C38.496978,30.195054 38.49642,30.195054 38.49642,30.195054 C38.495862,30.188916 38.496978,30.17943 38.496978,30.172176 C38.496978,30.169386 38.49642,30.166038 38.496978,30.163248 C38.496978,30.14874 38.498094,30.133116 38.49921,30.116934 C38.68056,30.088476 38.858562,30.063924 39.039354,30.046626 C39.455064,30.005334 39.874122,30.008124 40.292064,30.032118 C40.71168,30.058344 41.125716,30.117492 41.547006,30.181662 C41.761278,30.2106767 41.979456,30.214026 42.19317,30.190032 C42.406326,30.167154 42.62004,30.120282 42.80976,30.021516 C41.979456,30.301074 41.164776,29.884806 40.307688,29.840166 C39.881934,29.796084 39.450042,29.78883 39.020382,29.81952 C38.837358,29.831796 38.652102,29.856906 38.47131,29.88369 C38.46294,29.86416 38.454012,29.844072 38.445084,29.826216 C38.435598,29.80836 38.42667,29.791062 38.417742,29.772648 C38.395422,29.726892 38.389284,29.675556 38.375334,29.62701 C38.353572,29.55168 38.307258,29.483604 38.261502,29.421108 C38.212956,29.355264 38.15883,29.292768 38.09745,29.238084 C38.071782,29.214648 38.037744,29.203488 38.00538,29.191212 C37.901034,29.150478 37.845792,29.044458 37.742562,29.001492 C37.580742,28.9323 37.440126,28.796148 37.255428,28.783314 C37.189584,28.77885 37.12653,28.797822 37.060686,28.774944 C36.997632,28.753182 36.938484,28.719144 36.871524,28.713564 C36.695196,28.69794 36.514962,28.748718 36.345888,28.793916 C36.290646,28.808982 36.235962,28.825722 36.181836,28.84581 C36.091998,28.880406 36.01611,28.927278 35.9631,29.009862 C35.95194,29.027718 35.893908,29.036088 35.87382,29.044458 C35.829738,29.06343 35.786214,29.08575 35.746038,29.111976 C35.699166,29.142666 35.676846,29.200698 35.629974,29.233062 C35.6004,29.253708 35.568594,29.26989 35.538462,29.289978 C35.501634,29.315088 35.474292,29.351358 35.44416,29.383722 C35.414028,29.416086 35.381664,29.446218 35.349858,29.476908 C35.304102,29.52099 35.25165,29.571768 35.219844,29.632032 C35.214822,29.64096 35.210916,29.653236 35.206452,29.667186 C35.205894,29.667744 35.205894,29.668302 35.205894,29.66886 C35.196966,29.698992 35.188596,29.737494 35.17911,29.771532 C34.790742,29.70513 34.393446,29.623104 33.99057,29.61027 C33.776298,29.6019 33.561468,29.605806 33.34887,29.630916 C33.137388,29.656026 32.923116,29.696202 32.730606,29.786598 C33.137388,29.665512 33.567048,29.676672 33.981642,29.725218 C34.360524,29.762604 34.726572,29.859138 35.10378,29.941722 C35.090946,29.964042 35.079228,29.983572 35.070858,29.994174 C35.05077,30.020958 35.029566,30.08457 35.011152,30.154878 C34.999992,30.198402 34.991064,30.241926 34.991064,30.280986 C34.991064,30.493584 35.052444,30.696696 35.227656,30.833406 C35.272854,30.867444 35.309124,30.887532 35.341488,30.897576 C35.373294,31.00248 35.429094,31.128588 35.529534,31.196106 C35.520048,31.25079 35.42742,31.721742 35.687448,31.683798 C35.701398,31.682124 35.726508,31.691052 35.743806,31.724532 C35.77059,31.776426 35.778402,31.842828 35.77617,31.900302 C35.774496,31.947732 35.790678,32.002416 35.84313,32.01525 C35.878284,32.03199 35.916228,32.000742 35.920134,32.011902 C35.91288,32.02641 35.908416,32.038686 35.906742,32.042592 C35.879958,32.114574 35.937432,32.169816 36.040104,32.13801 C36.08028,32.125734 36.104832,32.190462 36.107064,32.243472 C36.111528,32.36958 36.279486,32.449932 36.52947,32.36121 C36.619308,32.329404 36.881568,32.142474 36.930114,32.100066 C36.943506,32.11848 36.983682,32.172606 37.02888,32.245704 C36.907236,32.424822 36.61317,32.560416 36.340866,32.692104 C36.112644,32.781942 35.92962,32.967756 35.81244,33.18705 C35.510562,33.186492 35.20701,33.20379 34.909596,33.254568 C34.485516,33.319296 34.072038,33.406344 33.651864,33.399648 C33.442056,33.398532 33.23169,33.377886 33.02523,33.333804 C32.818212,33.289722 32.614542,33.228342 32.412546,33.158034 C32.794776,33.347196 33.213276,33.477768 33.646842,33.512364 C34.080966,33.548076 34.513974,33.483906 34.93359,33.43536 C35.196966,33.40467 35.460342,33.395742 35.724834,33.400764 C35.707536,33.45489 35.694702,33.50232 35.690238,33.529662 C35.619372,33.938676 35.574732,34.352154 35.546274,34.76619 C35.511678,35.267274 35.53623,35.77617 35.484336,36.275022 C35.482104,36.299016 35.48043,36.322452 35.478198,36.346446 C33.959322,36.3258 32.435424,36.291762 30.912084,36.248796 C30.828384,36.41229 30.746916,36.572994 30.68163,36.728676 C32.29983,36.76104 33.956532,36.779454 35.555202,36.782244 C35.626626,36.884358 35.749386,36.96192 35.842572,37.035018 C36.13329,37.264356 36.427914,37.513782 36.74709,37.710756 C34.804134,37.74312 32.723352,37.703502 30.636432,37.59804 C30.746916,38.416626 30.649824,39.457854 30.474612,40.369626 C30.856842,40.394178 31.095666,40.409802 31.121334,40.41036 C31.629672,40.417614 32.125734,40.258584 32.634072,40.24017 C33.275214,40.21785 33.90408,40.325544 34.53741,40.404222 C35.49996,40.52475 36.44856,40.24575 37.415016,40.347306 C39.084552,40.523076 41.291442,40.105692 43.429698,40.19832 C44.342028,39.06837 45.134946,37.83798 45.790038,36.526122 C44.778384,36.969732 43.132842,37.288908 41.146362,37.480302 C41.147478,37.473606 41.148594,37.467468 41.149152,37.460772 C41.173704,37.23534 40.972824,36.957456 40.85676,36.72198 C43.34823,36.651114 45.258264,36.509382 45.904428,36.295668 C45.93177,36.238752 45.957996,36.181278 45.985338,36.124362 L45.985338,36.124362 Z" id="Fill-25"></path>
                <path d="M39.89142,20.256516 C39.886398,20.468556 39.879702,20.680038 39.871332,20.89152 C39.84957,21.429432 39.784284,21.964554 39.70728,22.497444 C39.665988,22.778676 39.64032,23.062698 39.593448,23.342814 C39.562758,23.530302 39.506958,23.712768 39.465666,23.897466 C39.395916,24.212736 39.355182,24.549768 39.28599,24.871734 C38.928312,24.979986 38.76984,24.98166 38.475216,25.053642 C38.700648,22.960584 38.606346,20.022714 38.41272,18.044046 C38.411046,18.027864 38.518182,18.088686 38.61639,18.12663 C38.657124,18.142812 38.682234,18.103752 38.682234,18.087012 C38.710134,17.926308 38.63313,17.732682 38.63313,17.732682 C38.63313,17.732682 38.841822,17.885574 38.9484,17.83089 C39.05442,17.73324 38.978532,17.429688 39.053862,17.08875 C39.193362,17.295768 39.278736,17.646192 39.398148,17.496648 C39.439998,17.425782 39.398148,17.092656 39.398148,17.092656 C39.398148,17.092656 39.513096,17.439174 39.600144,17.349894 C39.60684,17.34264 39.613536,17.342082 39.619674,17.33985 C39.645342,17.32032 39.66822,17.296326 39.687192,17.261172 C39.775356,17.153478 39.746898,16.95762 39.819438,16.931952 C39.82446,16.936416 39.829482,16.941438 39.833946,16.94646 C39.948894,17.897292 39.91932,19.041192 39.89142,20.256516 Z M46.776582,20.825676 C46.752588,20.82735 46.724688,20.835162 46.684512,20.842974 C46.550592,20.868084 46.41723,20.8971 46.284426,20.930022 C45.807894,21.048876 45.344754,21.217392 44.903376,21.432222 C44.117154,21.813336 43.418538,22.336182 42.735546,22.875768 C42.116166,23.365134 41.49846,23.872356 40.788684,24.226128 C40.706658,24.266862 40.620168,24.31485 40.533678,24.341634 C40.56939,23.767452 40.668714,23.192154 40.720608,22.61853 C40.770828,22.057182 40.811004,21.495276 40.83723,20.932812 C40.886334,19.893258 41.01021,18.848124 40.919814,17.810244 C40.89582,17.539056 40.914234,17.587044 40.918698,17.316414 C40.920372,17.200908 40.949388,17.06364 40.928742,16.947576 C40.94046,17.014536 41.192118,17.287398 41.298696,17.2143 C41.332176,17.191422 41.180958,16.462674 41.312646,16.602732 C41.38407,16.67862 41.90859,17.43471 42.06483,17.298558 C41.901894,16.9632 41.892966,16.364466 41.982246,16.490574 C42.071526,16.616124 42.197076,16.79301 42.240042,16.71768 C42.457104,16.337124 42.180894,15.924204 42.202098,15.825438 C42.292494,15.761268 42.665238,16.332102 42.73722,16.320384 C42.959862,16.28523 42.914664,15.462738 42.848262,15.242328 C42.805296,15.09948 42.669144,14.88465 42.515136,14.7033 C42.35499,14.583888 42.200982,14.477868 42.00624,14.463918 C41.811498,14.449968 42.131232,14.428764 41.99229,14.199426 C41.988384,14.19273 41.986152,14.186592 41.983362,14.180454 C41.962158,14.154786 41.939838,14.129118 41.917518,14.102892 C41.91696,14.102892 41.916402,14.102334 41.915844,14.101776 C41.780808,13.98069 41.59611,13.962834 41.463864,13.956138 C41.463864,13.956138 41.809266,13.938282 41.560956,13.81887 C41.52078,13.800456 41.479488,13.783158 41.432616,13.769766 C41.257962,13.719546 40.903074,13.753584 40.779756,13.767534 C40.650858,13.788738 40.509684,13.826682 40.427658,13.837842 C40.323312,13.851792 40.654764,13.740192 40.559346,13.65705 C40.559346,13.656492 40.559346,13.656492 40.559346,13.655934 C40.529214,13.63194 40.497966,13.605714 40.464486,13.574466 C40.235148,13.356846 39.876912,13.282632 39.581172,13.337874 C39.113568,13.42548 39.23298,13.29993 39.05442,13.280958 C39.272598,13.18554 39.406518,12.977406 39.52314,12.902076 C39.533184,12.895938 39.532626,12.887568 39.498588,12.87027 C39.328398,12.786012 38.777652,12.622518 38.606346,12.68892 C38.590164,12.695058 38.599092,12.672738 38.613042,12.654324 C38.840706,12.349656 38.712366,12.374766 39.092364,12.201786 C39.09906,12.198438 39.106872,12.18114 39.072276,12.173886 C38.583468,12.071214 38.126466,12.330126 38.091312,12.35412 C38.091312,12.35412 38.061738,12.334032 38.028816,12.302226 C37.817892,12.096324 37.649376,11.986398 37.341918,11.97189 C37.221948,11.965752 37.186794,11.959056 37.220832,12.004812 C37.264914,12.064518 37.19907,12.117528 37.38042,12.2481 C37.327968,12.291624 37.065708,12.188952 36.980892,12.1644 C36.846414,12.124782 36.51831,12.087396 36.380484,12.168306 C36.357606,12.18114 36.373788,12.182256 36.378252,12.183372 C36.550116,12.227454 36.494316,12.346866 36.753786,12.511476 C36.759366,12.515382 36.769968,12.52152 36.743742,12.526542 C36.428472,12.400992 36.079164,12.400434 35.967564,12.416058 C35.886096,12.406572 35.807976,12.403224 35.734878,12.403224 C35.719254,12.402108 35.705304,12.402108 35.69247,12.403224 C35.454762,12.408246 35.277876,12.452886 35.227098,12.479112 C35.193618,12.496968 35.2377,12.506454 35.272296,12.517614 C35.47206,12.5829 35.643366,12.676644 35.683542,12.729654 C35.687448,12.735234 35.682426,12.742488 35.662896,12.740814 C35.475966,12.7224 34.853238,12.773178 34.842636,12.849066 C35.02287,12.913236 35.203662,13.008654 35.311356,13.086216 C35.352648,13.11579 35.359902,13.117464 35.300754,13.122486 C34.984368,13.14927 34.758378,13.390326 34.744986,13.48128 C34.744428,13.484628 34.74666,13.48686 34.755588,13.487976 C34.91127,13.50918 35.328096,13.593996 35.50554,13.718988 C35.53065,13.736844 35.507772,13.782042 35.479872,13.787064 C34.62948,13.928796 34.30863,14.614578 34.229952,14.994576 C34.228836,15.001272 34.235532,15.017454 34.246692,15.011316 C34.61274,14.80095 34.708158,14.760216 35.14842,14.698836 C35.31582,14.675958 36.090882,14.508558 35.008362,14.9823 C34.369452,15.261858 34.18029,15.901326 34.20819,16.070958 C34.21377,16.104438 34.242228,16.077096 34.253388,16.065378 C34.39512,15.920298 34.656822,15.911928 34.837614,15.906348 C34.933032,15.903558 35.224866,15.825996 35.311356,15.815952 C35.332002,15.81372 35.167392,15.96159 35.121636,15.996744 C34.753914,16.277418 34.742754,16.589898 34.78293,16.822026 C34.848216,16.835976 35.365482,16.332102 35.623278,16.332102 C35.59203,16.332102 35.091504,16.986636 35.092062,17.7723 C35.09262,17.969832 35.209242,18.348714 35.318052,18.181314 C35.483778,17.924634 36.02727,17.399556 36.030618,17.481024 C36.03285,17.52678 36.043452,17.576442 36.06075,17.626662 L36.060192,17.626662 C36.060192,17.626662 36.284508,18.263898 36.72477,18.53118 C36.776664,18.562986 36.793404,18.397818 36.833022,18.248274 C36.87543,18.040698 36.978102,17.920728 36.978102,17.920728 C36.978102,17.920728 37.071288,18.130536 37.119834,18.232092 C37.268262,18.396144 37.378746,18.189126 37.42506,18.170154 C37.45575,18.64557 37.588554,19.259928 37.568466,19.803978 C37.54782,20.34468 37.55619,20.88873 37.529406,21.428874 C37.502064,21.986316 37.474722,22.544316 37.4418,23.101758 C37.426734,23.35509 37.415574,23.610096 37.387674,23.862312 C37.367028,24.049242 37.331874,24.234498 37.306764,24.421428 C37.267704,24.71661 37.25766,25.034112 37.18512,25.323156 C37.1628,25.411878 37.147176,25.409646 37.058454,25.43085 C36.983124,25.449264 36.907794,25.469352 36.832464,25.489998 C36.738162,25.515666 36.644418,25.543566 36.551232,25.572024 C36.38997,25.620012 36.229824,25.669674 36.069678,25.721568 C35.69805,25.841538 35.328096,25.96932 34.963164,26.108262 C34.61274,26.241624 34.26399,26.383356 33.930306,26.553546 C33.721056,26.660124 33.455448,26.784558 33.3126,26.980974 C33.21495,27.11601 33.416946,27.127728 33.523524,27.145026 C33.655212,27.166788 33.790248,27.170694 33.920262,27.201942 C34.387866,27.314658 34.839846,27.34479 35.320842,27.345348 C36.453582,27.346464 37.585206,27.302382 38.717946,27.268344 C39.073392,27.257742 39.42828,27.243234 39.783726,27.23877 C40.34898,27.232632 40.92093,27.230958 41.482278,27.30015 C41.565978,27.310194 42.334344,27.430722 42.102216,27.608166 C41.944302,27.728694 41.721102,27.798444 41.5431,27.884376 C41.315436,27.993186 41.083866,28.101996 40.872942,28.241496 C40.804308,28.287252 40.578876,28.422288 40.691592,28.521054 C40.730652,28.555092 40.813794,28.553418 40.861782,28.560114 C40.983984,28.577412 41.106744,28.589688 41.230062,28.599174 C42.160248,28.67283 43.098804,28.612008 44.031222,28.630422 C44.677944,28.643256 45.325782,28.673388 45.966366,28.768806 C46.500372,28.848042 47.024334,28.978614 47.54439,29.124252 C47.640366,29.151036 47.738574,29.185632 47.836782,29.212416 C47.883654,28.65051 47.909322,28.082466 47.909322,27.508842 C47.909322,25.166358 47.509794,22.917618 46.776582,20.825676 L46.776582,20.825676 Z" id="Fill-26"></path>
                <path d="M13.914288,40.78701 C14.158692,40.800402 14.38803,40.861224 14.635224,40.915908 C14.87907,40.970592 15.13017,41.008536 15.385176,41.025276 C15.639624,41.039784 15.896304,41.025834 16.147962,40.992354 C16.399062,40.956084 16.649046,40.897494 16.88787,40.832208 C17.11386,40.766922 17.353242,40.746834 17.59374,40.748508 C18.075294,40.757994 18.560196,40.86513 19.029474,41.030298 C18.60093,40.774176 18.11268,40.607892 17.603226,40.561578 C17.34822,40.536468 17.087076,40.552092 16.83207,40.611798 C16.589898,40.669272 16.356654,40.723398 16.11504,40.75353 C15.636276,40.827186 15.154722,40.802634 14.668146,40.730652 C14.544828,40.71447 14.425974,40.69215 14.297076,40.678758 C14.169852,40.667598 14.04207,40.663134 13.914846,40.668714 C13.662072,40.684338 13.410414,40.72842 13.17996,40.827186 C13.424364,40.780314 13.671558,40.769712 13.914288,40.78701" id="Fill-27"></path>
                <path d="M40.07277,28.680084 C40.077234,28.740348 40.107924,28.796706 40.1481,28.840788 C40.189392,28.882638 40.238496,28.913328 40.288158,28.935648 C40.486806,29.023254 40.690476,29.046132 40.893588,29.061756 C41.097258,29.0718 41.299812,29.065104 41.500692,29.039436 C41.700456,29.01321 41.900778,28.972476 42.088824,28.896588 C41.886828,28.90719 41.689296,28.911654 41.491764,28.913886 C41.29479,28.913886 41.097816,28.913328 40.903074,28.901052 C40.805424,28.897146 40.70889,28.88766 40.612914,28.875384 C40.518054,28.864224 40.420404,28.846368 40.33503,28.819584 C40.249656,28.792242 40.17321,28.74816 40.15089,28.668366 C40.128012,28.587456 40.161492,28.486458 40.208364,28.39941 C40.134708,28.46637 40.06998,28.559556 40.07277,28.680084" id="Fill-28"></path>
                <path d="M24.517404,36.527796 C24.391854,36.365976 24.265188,36.20304 24.138522,36.040662 C22.44834,35.991 20.773782,35.947476 19.129914,35.924598 C19.19241,36.166212 21.395394,36.375462 24.517404,36.527796" id="Fill-29"></path>
                <path d="M19.72809,29.672208 C19.556784,29.672766 19.38492,29.66049 19.216404,29.625336 C19.04733,29.59074 18.87993,29.539962 18.72369,29.452914 C18.848682,29.583486 19.014408,29.669976 19.183482,29.737494 C19.354788,29.80278 19.53558,29.842956 19.718604,29.859138 C19.901628,29.876994 20.086326,29.874762 20.268234,29.854116 C20.44791,29.835702 20.616984,29.808918 20.791638,29.796642 C21.13983,29.762604 21.475746,29.75535 21.817242,29.820078 C21.994128,29.851326 22.176036,29.869182 22.356828,29.870298 C22.537062,29.868066 22.723434,29.854116 22.889718,29.78325 C22.711716,29.801664 22.538178,29.781576 22.366872,29.752002 C22.19445,29.723544 22.026492,29.681694 21.85686,29.63538 C21.686112,29.584602 21.498066,29.55447 21.315042,29.542752 C21.13146,29.533266 20.949552,29.542752 20.769876,29.556702 C20.590758,29.574 20.409966,29.603016 20.23866,29.628684 C20.069586,29.66049 19.898838,29.667186 19.72809,29.672208" id="Fill-30"></path>
                <path d="M9.104328,33.472188 C9.225414,33.483906 9.345384,33.503994 9.462006,33.534126 C9.583092,33.565374 9.708084,33.590484 9.833076,33.613362 C10.33416,33.700968 10.845846,33.695946 11.346372,33.65856 C11.596914,33.635682 11.84634,33.607782 12.094092,33.572628 C12.335706,33.536358 12.578436,33.51906 12.82284,33.51348 C13.067244,33.51069 13.312206,33.522408 13.55661,33.553656 C13.801014,33.583788 14.04486,33.629544 14.284242,33.700968 C14.06439,33.579882 13.822218,33.501204 13.578372,33.43815 C13.332852,33.377886 13.080636,33.339384 12.827304,33.325992 C12.573414,33.309252 12.31785,33.322086 12.065076,33.346638 C11.818998,33.37398 11.57292,33.400764 11.3274,33.418062 C10.835802,33.458796 10.344762,33.473862 9.858186,33.42699 C9.735984,33.414714 9.615456,33.397416 9.493254,33.379002 C9.365472,33.360588 9.236574,33.352218 9.108792,33.353892 C8.85825,33.361704 8.608266,33.402996 8.380602,33.498414 C8.380602,33.498972 8.380602,33.49953 8.38116,33.500646 C8.622216,33.456006 8.86662,33.447636 9.104328,33.472188" id="Fill-31"></path>
                <path d="M20.65995,25.03467 L20.576808,25.187562 C20.8692,25.147944 21.15657,25.078194 21.428316,24.969384 C21.171078,25.006212 20.914956,25.026858 20.65995,25.03467" id="Fill-32"></path>
                <path d="M17.700876,33.522966 C17.584254,33.556446 17.482698,33.592158 17.373888,33.61392 C17.265636,33.637914 17.155152,33.652422 17.043552,33.655212 C16.820352,33.663582 16.591014,33.634008 16.373394,33.555888 C16.569252,33.682554 16.803054,33.748398 17.039646,33.77295 C17.1585,33.784668 17.279028,33.781878 17.39844,33.769602 C17.458704,33.76458 17.51841,33.753978 17.577,33.741144 L17.746074,33.705432 C18.18801,33.613362 18.639432,33.588252 19.090854,33.615594 C19.316844,33.625638 19.542276,33.65019 19.768266,33.68088 C19.995372,33.705432 20.215782,33.755094 20.456838,33.774624 C20.92779,33.811452 21.421062,33.741702 21.82338,33.50232 C21.383118,33.6474 20.919978,33.655212 20.479158,33.587694 C20.262096,33.54975 20.0322,33.49395 19.802304,33.45489 C19.57185,33.416388 19.338606,33.389604 19.103688,33.375096 C18.86877,33.364494 18.632178,33.366168 18.396144,33.389046 C18.161226,33.414156 17.926866,33.455448 17.700876,33.522966" id="Fill-33"></path>
                <path d="M26.027352,26.045766 C26.208702,26.353782 26.530668,27.508284 26.505558,27.575802 C26.484354,27.63774 26.42688,27.69912 26.356014,27.757152 C25.48665,27.725904 24.707124,27.264438 23.761314,27.398916 C23.793678,26.773956 24.113412,26.055252 24.31206,25.653492 C24.523542,25.225506 24.667506,24.899634 24.767388,24.366186 C24.969384,24.819282 25.554726,25.244478 26.027352,26.045766 Z M28.503198,10.070226 C28.582992,10.340298 28.658322,10.749312 28.658322,10.749312 C28.985868,13.081752 28.270512,12.222432 28.646604,14.851728 L28.695708,15.208848 C28.695708,15.208848 27.993186,15.717186 27.710838,16.061472 C27.28899,16.576506 27.171252,17.059734 26.628876,17.420202 C25.724916,18.020052 25.65963,18.460872 25.558074,18.352062 C25.432524,18.218142 25.344918,18.073062 25.344918,18.073062 C25.40295,17.910684 25.389558,17.71092 25.339338,17.559144 C25.31925,17.497764 25.295256,17.438058 25.274052,17.377236 C25.223832,17.234946 25.250058,17.064756 25.23555,16.915212 C25.219926,16.760646 25.195932,16.598268 25.130646,16.455978 C25.120602,16.4331 25.108326,16.410222 25.094376,16.389018 L28.503198,10.070226 Z M29.012094,31.003596 C28.878732,31.360716 28.276092,31.728438 27.71028,32.005206 C27.591984,32.661972 27.585846,34.274592 27.578034,34.966512 C27.574128,35.313588 27.4815,36.153936 27.72702,37.297836 C27.335304,36.614286 26.99325,35.973144 26.983764,35.809092 C26.910666,34.432506 25.987176,33.065406 25.26624,32.893542 C25.030206,32.837184 25.028532,32.875686 24.346098,32.714982 C24.720516,32.640768 25.055874,32.572692 25.358868,32.509638 L25.35273,32.510196 C25.35273,32.510196 25.36389,32.507964 25.384536,32.504616 C25.58709,32.462208 25.77402,32.42259 25.947,32.385204 C26.745498,32.19381 28.162818,31.76694 29.012094,31.003596 Z M24.639606,15.844968 C24.491736,15.718302 24.34833,15.714396 24.246216,15.539184 C24.150798,15.376806 23.944896,15.304824 23.76243,15.251814 C23.59503,15.203826 23.417586,15.16365 23.245722,15.151932 C23.07888,15.140772 22.940496,15.01857 22.776444,14.997924 C22.444992,14.956074 22.090662,14.914782 21.77316,15.081066 C21.634776,15.153048 21.57786,15.228936 21.437802,15.29757 C21.298302,15.365646 21.158802,15.430932 21.018744,15.499566 C20.878128,15.568758 20.724678,15.627348 20.602476,15.729462 C20.464092,15.844968 20.343564,16.033572 20.251494,16.183674 C20.140452,16.363908 20.1438,16.56423 20.117016,16.657416 C20.041128,16.923024 19.90386,16.968222 19.904418,17.209836 C19.904418,17.338734 19.8369,17.473212 19.918368,17.703666 C19.94292,17.7723 19.922274,17.898408 19.925064,17.968716 C19.933992,18.22428 20.0601,18.62046 20.290554,18.569682 C20.399922,18.545688 20.434518,18.535086 20.468556,18.60372 C20.54556,18.759402 20.605266,18.950238 20.706822,19.090854 C20.750346,19.151118 20.808936,19.199106 20.873106,19.235934 C20.901006,19.252116 21.128112,19.324098 21.127554,19.320192 C21.15657,19.524978 21.28491,20.158308 21.651516,19.989234 C21.724614,19.955754 21.80385,19.836342 21.82617,19.969146 C21.841794,20.058984 21.864114,20.159424 21.937212,20.221362 C22.013658,20.28609 22.129164,20.268792 22.195566,20.19681 C22.201704,20.190672 22.20561,20.194578 22.203936,20.204064 C22.189428,20.298924 22.2921,20.377044 22.382496,20.363094 L15.95322,32.281974 L14.937102,33.83433 L14.927616,33.849954 C14.927616,33.849954 14.971698,34.065342 14.97951,34.101612 L14.984532,34.103844 C14.874606,34.243344 13.134204,36.471996 12.246426,37.608084 C12.037734,37.875366 11.879262,38.07792 11.806722,38.171106 C11.845782,38.190636 11.906604,38.22579 11.94957,38.247552 L12.635352,37.80729 C12.578994,37.778832 12.525984,37.75149 12.473532,37.724148 C12.904308,37.168938 14.78421,34.74387 14.78421,34.74387 L12.70566,38.624202 C12.752532,38.647638 12.799404,38.671074 12.846276,38.695068 L13.418784,38.209608 C13.364658,38.181708 13.309416,38.155482 13.253616,38.129256 C13.642542,37.380978 14.967234,34.824222 14.967234,34.824222 C14.967234,34.824222 14.165388,37.516572 13.887504,38.450106 C13.837284,38.424438 13.787064,38.39877 13.734612,38.371986 L13.774788,39.159882 C13.812174,39.178854 13.879134,39.21624 13.914846,39.234096 C13.943862,39.139236 14.01696,38.897622 14.116842,38.568402 C14.116284,38.567844 14.115726,38.567844 14.115168,38.567844 C14.514696,37.250964 15.261858,34.793532 15.419772,34.285752 L15.677568,34.136766 L16.39404,32.51745 L22.799322,20.64321 C22.874652,20.702358 22.984578,20.727468 23.150304,20.63763 C23.595588,20.396016 23.731182,20.209644 23.731182,20.209644 C23.783634,20.26098 24.036966,20.469672 24.036966,20.469672 C24.098346,20.774898 23.481198,21.306672 23.250186,21.537126 C22.901994,21.885876 22.746312,22.253598 22.648662,22.642524 C22.611834,22.80825 22.591746,22.962258 22.57668,23.095062 C22.557708,23.130774 22.542084,23.177646 22.529808,23.237352 C22.37859,23.973354 22.25583,24.040314 22.064994,24.888474 C21.916008,25.549146 21.932748,25.881714 21.857418,26.640594 C21.791016,27.063 21.74526,27.352044 21.732426,27.627696 C21.732426,27.628254 21.732426,27.62937 21.732426,27.630486 C21.731868,27.631602 21.732426,27.631602 21.732426,27.632718 C21.72852,27.715302 21.727962,27.797328 21.730752,27.882144 C21.748608,28.39662 21.919356,28.864224 22.277592,28.963548 C22.747428,29.09412 23.199966,29.299464 24.316524,29.226366 C23.697702,29.677788 23.10399,30.130884 22.592862,30.60351 C22.343994,30.833406 21.642588,31.467294 21.666024,31.859568 C21.70062,32.43375 21.846816,33.042528 22.831686,34.072038 C23.569362,34.753914 25.32762,37.107558 26.730432,39.003084 C27.190224,40.160934 27.310194,40.655322 27.289548,40.961106 C27.268902,41.268006 27.145584,41.821542 27.206406,42.188148 C27.259416,42.50844 27.539532,42.568146 27.83304,42.27408 C27.860382,43.500564 27.864288,45.253242 27.853128,45.686808 C27.850896,45.754884 27.932922,45.782784 27.984258,45.801198 C28.35477,45.932328 29.067894,45.970272 29.363634,45.737028 C29.405484,45.704106 29.399904,45.603108 29.401578,45.551772 C29.405484,45.417852 29.399346,45.282816 29.406042,45.148896 C29.441754,44.429634 29.52099,42.839334 29.728566,42.142392 C29.95344,41.387976 30.141486,40.75074 30.269826,39.967308 C30.577842,38.078478 30.27708,38.000916 30.345714,37.152198 C30.381984,36.707472 30.697254,35.872704 30.697254,35.872704 C31.48515,33.636798 31.665384,32.546466 31.650318,30.790998 C32.417568,29.215764 31.963914,27.244908 31.004712,25.929702 C30.926592,25.822008 30.587886,25.166358 30.520368,24.933114 C30.45285,24.699312 30.36078,23.943222 30.25197,23.175414 C30.004218,21.4272 28.953504,19.951848 29.139876,19.346976 C29.458494,18.311886 29.781018,17.32032 30.40542,16.42752 C30.40542,16.42752 30.40542,16.42752 30.40542,16.426962 C31.096782,15.438744 30.457872,13.511412 30.262014,12.427776 C30.111912,11.597472 29.802222,10.587492 29.588508,9.760536 C29.584602,9.732636 29.57958,9.706968 29.575116,9.682974 C29.575116,9.66456 29.575674,9.646146 29.575674,9.623268 C29.573442,9.356544 29.781576,8.498898 29.476908,8.27793 C29.475234,8.276814 29.47356,8.275698 29.471328,8.274582 L29.934468,7.417494 C29.754792,7.397406 29.575116,7.380108 29.394324,7.365042 L29.053386,7.996698 C28.974708,7.94313 28.850274,7.93197 28.668924,7.979958 C28.325196,8.07147 27.54288,9.361566 27.861498,9.666234 C27.929016,9.730962 28.007694,9.765558 28.089162,9.78453 L24.749532,15.976098 C24.712146,15.923088 24.673644,15.874542 24.639606,15.844968 L24.639606,15.844968 Z" id="Fill-34"></path>
                <path d="M15.912486,29.4066 C16.107786,29.41497 16.303086,29.412738 16.49727,29.40102 C16.691454,29.38986 16.88508,29.368656 17.075916,29.33127 C16.688664,29.350242 16.30197,29.341872 15.92253,29.288862 C15.731694,29.265984 15.546996,29.229714 15.357834,29.186748 C15.164208,29.142666 14.966676,29.120904 14.77026,29.110302 C14.375754,29.086308 13.984038,29.11644 13.596786,29.152152 C13.208976,29.191212 12.82842,29.243106 12.44619,29.269332 C11.683404,29.334618 10.91727,29.311182 10.165644,29.171124 C9.978156,29.13876 9.791784,29.090772 9.595368,29.05785 C9.400626,29.02716 9.204768,29.009304 9.008352,29.00484 C8.811936,29.003166 8.61552,29.017116 8.422452,29.044458 C8.229384,29.072358 8.037432,29.11644 7.857198,29.188422 C8.234406,29.0997 8.622216,29.084634 9.001656,29.12202 C9.191934,29.140992 9.380538,29.16945 9.565236,29.212416 L9.842562,29.283282 C9.936864,29.307834 10.031724,29.333502 10.127142,29.354706 C10.508256,29.446218 10.898856,29.49867 11.290014,29.524896 C11.682288,29.549448 12.075678,29.537172 12.464604,29.509272 C13.245246,29.44845 14.00301,29.291652 14.764122,29.298348 C14.953842,29.298906 15.142446,29.312856 15.328818,29.34243 C15.519654,29.372004 15.717186,29.397672 15.912486,29.4066" id="Fill-35"></path>
                <path d="M8.773992,26.741592 C9.20142,26.748846 9.621594,26.698068 10.039536,26.66124 C10.457478,26.622738 10.870398,26.589258 11.28555,26.604324 C11.70126,26.612136 12.111948,26.654544 12.53268,26.699184 C13.373028,26.775072 14.216166,26.83422 15.064884,26.802972 C15.276366,26.794044 15.490638,26.779536 15.701004,26.747172 C15.910812,26.715924 16.118388,26.679654 16.325406,26.640594 C16.738884,26.55522 17.151246,26.470962 17.559144,26.367174 C17.141202,26.417394 16.724934,26.478216 16.30755,26.523414 C15.88905,26.573634 15.476688,26.620506 15.060978,26.614926 C14.644152,26.611578 14.22621,26.593164 13.808826,26.56359 C13.390884,26.536248 12.9735,26.501094 12.556116,26.459244 C12.140406,26.420184 11.714094,26.37666 11.28834,26.37666 C10.86147,26.374428 10.4346,26.414046 10.018332,26.474868 L9.39393,26.561358 C9.185238,26.59149 8.980452,26.613252 8.772318,26.623854 C8.35884,26.645616 7.934202,26.623854 7.537464,26.482122 C7.723278,26.582562 7.931412,26.637804 8.139546,26.676864 C8.348238,26.715924 8.560836,26.736012 8.773992,26.741592" id="Fill-36"></path>
                <path d="M35.28513,25.187562 C35.744364,25.13511 36.201366,25.032996 36.617634,24.837696 C36.171234,24.938694 35.720928,24.985566 35.271738,25.001748 C34.823106,25.012908 34.37559,24.988914 33.933096,24.92028 C33.478884,24.854436 33.020208,24.806448 32.558742,24.807564 C32.098392,24.80589 31.63302,24.85611 31.192758,24.985008 C31.651434,24.95655 32.10174,24.960456 32.551488,24.997284 C32.776362,25.016814 33.001236,25.036344 33.225552,25.066476 C33.44931,25.091586 33.673626,25.125066 33.897384,25.157988 C34.35606,25.224948 34.82478,25.23834 35.28513,25.187562" id="Fill-37"></path>
                <path d="M32.600034,27.209196 C32.581062,27.27225 32.600034,27.357624 32.657508,27.405612 C32.711634,27.454716 32.779152,27.477036 32.839974,27.493776 C32.901912,27.511074 32.96664,27.519444 33.029694,27.524466 C33.157476,27.535626 33.27633,27.525024 33.381792,27.551808 C33.487812,27.574128 33.587136,27.627138 33.681438,27.692424 C33.702642,27.70749 33.736122,27.726462 33.765696,27.743202 C33.79527,27.762732 33.827076,27.773892 33.858882,27.78561 C33.889572,27.799002 33.921378,27.809046 33.953184,27.8163 C33.98499,27.823554 34.016796,27.833598 34.04916,27.836388 C34.176384,27.857034 34.30305,27.859824 34.427484,27.851454 C34.676352,27.836946 34.91964,27.786168 35.151768,27.703026 C34.906806,27.720324 34.664634,27.734832 34.42581,27.726462 C34.307514,27.719766 34.18866,27.713628 34.07706,27.686844 C34.048602,27.681822 34.021818,27.673452 33.994476,27.666198 C33.967134,27.659502 33.94035,27.651132 33.915798,27.639414 C33.890688,27.62937 33.864462,27.619884 33.843816,27.604818 C33.820938,27.590868 33.80085,27.580266 33.772392,27.560178 C33.665814,27.48987 33.545286,27.425142 33.410808,27.402822 C33.275772,27.379944 33.148548,27.396684 33.0336,27.399474 C32.97501,27.401148 32.918094,27.398358 32.86062,27.390546 C32.803146,27.38385 32.74902,27.372132 32.70717,27.344232 C32.663088,27.31968 32.642442,27.27225 32.644116,27.215892 C32.646906,27.160092 32.666994,27.100944 32.695452,27.047376 C32.653602,27.091458 32.617332,27.144468 32.600034,27.209196" id="Fill-38"></path>
                <path d="M21.001446,39.917646 C20.906028,39.974562 20.817864,40.04487 20.743092,40.133034 C20.671668,40.218966 20.605266,40.338378 20.633724,40.47732 C20.667204,40.61403 20.780478,40.702752 20.878686,40.75911 C20.975778,40.821048 21.08124,40.866804 21.18726,40.910328 C21.615246,41.076612 22.087872,41.117904 22.5432,41.03532 C22.746312,40.99626 22.960584,40.987332 23.172066,40.995144 C23.385222,41.001282 23.596704,41.030856 23.802606,41.078844 C23.900814,41.103396 24.017436,41.140782 24.129036,41.157522 C24.24231,41.175378 24.3567,41.184864 24.47109,41.182074 C24.699312,41.174262 24.923628,41.118462 25.120602,41.016348 C24.905214,41.068242 24.687036,41.08833 24.474996,41.06322 C24.369534,41.052618 24.26463,41.031972 24.163074,41.002398 C24.058728,40.97394 23.967774,40.93767 23.855616,40.897494 C23.418144,40.757994 22.958352,40.722282 22.498002,40.798728 C22.293216,40.840578 22.082292,40.85118 21.871926,40.839462 C21.660444,40.830534 21.451752,40.792032 21.24864,40.733442 C21.147642,40.702194 21.048318,40.665924 20.9529,40.620168 C20.85804,40.579992 20.778246,40.524192 20.747556,40.444956 C20.714634,40.366278 20.745324,40.261374 20.797776,40.171536 C20.851344,40.080024 20.92221,39.994092 21.001446,39.917646" id="Fill-39"></path>
                <path d="M26.594838,39.31947 C26.520624,39.149838 25.835958,38.23695 25.00119,37.152756 C23.192154,36.955224 21.479652,36.709704 19.965798,36.422334 C19.470852,36.327474 18.786186,35.931294 18.786186,35.931294 C18.686304,35.68131 18.455292,35.621046 18.323604,35.690238 C18.270036,35.417934 18.054648,35.381106 17.898966,35.487684 C17.902314,35.177994 17.598762,35.234352 17.514504,35.281224 C17.514504,35.281224 17.2701,35.110476 17.092656,35.012826 L16.827048,35.372178 C16.931952,35.45811 17.09433,35.574732 17.20314,35.6562 C17.101584,35.906184 17.347662,36.042894 17.545752,35.94078 C17.44587,36.0189 17.59095,36.427914 17.929656,36.284508 C17.9676,36.62154 18.242136,36.69687 18.420696,36.656136 C18.420696,36.656136 19.064628,37.202418 19.24542,37.35252 C19.726974,37.75149 20.208528,38.151018 20.69064,38.549988 C21.161592,38.940588 21.635334,39.327282 22.101822,39.722904 C22.578354,40.126896 23.044284,40.10067 23.646924,40.094532 C24.558696,40.08393 25.733844,40.119642 26.881092,40.17042 C26.778978,39.825576 26.671284,39.495798 26.594838,39.31947" id="Fill-40"></path>
                <path d="M18.739314,43.707582 C17.959788,43.558038 17.146224,43.606584 16.392366,43.81695 C16.779618,43.757244 17.16966,43.731018 17.556912,43.74441 C17.945838,43.753896 18.325278,43.803558 18.70416,43.891722 C19.088622,43.977654 19.479222,44.039034 19.874844,44.075304 C20.270466,44.105994 20.669994,44.107668 21.065058,44.07363 C21.458448,44.041824 21.853512,43.974306 22.23351,43.910694 C22.613508,43.850988 22.999644,43.82253 23.386338,43.81695 C24.160284,43.812486 24.93981,43.884468 25.70706,44.040708 C24.961014,43.799094 24.17814,43.66629 23.38857,43.636716 C22.993506,43.62165 22.59621,43.639506 22.202262,43.6914 C22.002498,43.714836 21.81501,43.7472 21.621942,43.772868 C21.42999,43.798536 21.238038,43.820856 21.045528,43.834806 C20.276604,43.902324 19.506006,43.838154 18.739314,43.707582" id="Fill-41"></path>
            </g>
        </g>
    </g>
</svg>