<svg xmlns="http://www.w3.org/2000/svg" width="17" height="13" viewBox="0 0 17 13"><g><g><g><path fill="none" stroke="#174194" stroke-linecap="round" stroke-linejoin="round" stroke-miterlimit="20" stroke-width=".75" d="M14.756 3.635v0V1v0H2.71v2.635"/></g><g><path fill="none" stroke="#174194" stroke-linecap="round" stroke-linejoin="round" stroke-miterlimit="20" stroke-width=".75" d="M2.2 6.521v0-2.007c0-.552.452-1.004 1.004-1.004H7.72c.552 0 1.004.452 1.004 1.004V6.52"/></g><g><path fill="none" stroke="#174194" stroke-linecap="round" stroke-linejoin="round" stroke-miterlimit="20" stroke-width=".75" d="M8.73 6.521v0-2.007c0-.552.452-1.004 1.004-1.004h4.517c.552 0 1.004.452 1.004 1.004V6.52"/></g><g><path fill="none" stroke="#174194" stroke-linecap="round" stroke-linejoin="round" stroke-miterlimit="20" stroke-width=".75" d="M1.2 10.033v0h15.057v0V6.52v0H1.2v0z"/></g><g><path fill="none" stroke="#174194" stroke-linecap="round" stroke-linejoin="round" stroke-miterlimit="20" stroke-width=".75" d="M1.2 10.03v2.51"/></g><g><path fill="none" stroke="#174194" stroke-linecap="round" stroke-linejoin="round" stroke-miterlimit="20" stroke-width=".75" d="M16.26 10.03v2.51"/></g></g></g></svg>