<svg xmlns="http://www.w3.org/2000/svg" width="15" height="14" viewBox="0 0 15 14"><g><g><g><path fill="none" stroke="#174194" stroke-linecap="round" stroke-linejoin="round" stroke-miterlimit="20" stroke-width=".75" d="M2.685 4.99v0L1.15 6.79v0l4.506 2.074v0l1.779-1.891v0z"/></g><g><path fill="none" stroke="#174194" stroke-linecap="round" stroke-linejoin="round" stroke-miterlimit="20" stroke-width=".75" d="M12.161 4.99v0L7.43 6.973v0L9.224 8.93v0l4.606-2.117v0z"/></g><g><path fill="none" stroke="#174194" stroke-linecap="round" stroke-linejoin="round" stroke-miterlimit="20" stroke-width=".75" d="M1 3.086v0l1.686 1.9v0l4.749-2.15v0L5.673 1v0z"/></g><g><path fill="none" stroke="#174194" stroke-linecap="round" stroke-linejoin="round" stroke-miterlimit="20" stroke-width=".75" d="M7.44 2.836v0L9.117 1v0l4.723 2.103v0l-1.669 1.884v0z"/></g><g><path fill="none" stroke="#174194" stroke-linecap="round" stroke-linejoin="round" stroke-miterlimit="20" stroke-width=".75" d="M7.44 6.97v0l.002 6.215v0L2.59 11.03v0-3.583 0"/></g><g><path fill="none" stroke="#174194" stroke-linecap="round" stroke-linejoin="round" stroke-miterlimit="20" stroke-width=".75" d="M7.44 13.18v0l4.912-2.202v0V7.49v0"/></g></g></g></svg>