<svg xmlns="http://www.w3.org/2000/svg" width="16" height="15" viewBox="0 0 16 15"><g><g><g><path fill="none" stroke="#174194" stroke-linecap="round" stroke-linejoin="round" stroke-miterlimit="20" stroke-width=".72" d="M5.1 8.52c-.02-1.68 1.358-3.09 3.04-3.11a3.015 3.015 0 0 1 2.766 1.69"/></g><g><path fill="none" stroke="#174194" stroke-linecap="round" stroke-linejoin="round" stroke-miterlimit="20" stroke-width=".72" d="M11.256 8.53c.019 1.68-1.359 3.09-3.04 3.11A3.015 3.015 0 0 1 5.45 9.95"/></g><g><path fill="none" stroke="#174194" stroke-linecap="round" stroke-linejoin="round" stroke-miterlimit="20" stroke-width=".72" d="M11.007 5.25v0l-.101 1.846v0l-1.846-.06v0"/></g><g><path fill="none" stroke="#174194" stroke-linecap="round" stroke-linejoin="round" stroke-miterlimit="20" stroke-width=".72" d="M5.43 11.796v0l.02-1.844v0l1.845-.022v0"/></g><g><path fill="none" stroke="#174194" stroke-linecap="round" stroke-linejoin="round" stroke-miterlimit="20" stroke-width=".72" d="M2.062 13.74H13.6c.664 0 1.202-.538 1.202-1.202V4.365c0-.663-.538-1.202-1.202-1.202h-2.163v0L9.995 1v0H6.629v0L5.187 3.163v0H2.062c-.664 0-1.202.539-1.202 1.202v8.173c0 .664.538 1.202 1.202 1.202z"/></g><g><path fill="#174194" d="M3.14 4.85a.6.6 0 1 1 .001 1.201.6.6 0 0 1 0-1.201"/></g></g></g></svg>