<svg xmlns="http://www.w3.org/2000/svg" width="16" height="17" viewBox="0 0 16 17"><g><g><g><path fill="none" stroke="#174194" stroke-linecap="round" stroke-linejoin="round" stroke-miterlimit="20" stroke-width=".72" d="M.71 6.068v0h3.434v0V1v0H.71v0z"/></g><g><path fill="none" stroke="#174194" stroke-linecap="round" stroke-linejoin="round" stroke-miterlimit="20" stroke-width=".72" d="M11.59 6.068v0h3.434v0V1v0H11.59v0z"/></g><g><path fill="none" stroke="#174194" stroke-linecap="round" stroke-linejoin="round" stroke-miterlimit="20" stroke-width=".72" d="M.71 15.558v0h3.434v0-5.068 0H.71v0z"/></g><g><path fill="none" stroke="#174194" stroke-linecap="round" stroke-linejoin="round" stroke-miterlimit="20" stroke-width=".72" d="M11.59 15.558v0h3.434v0-5.068 0H11.59v0z"/></g><g><path fill="none" stroke="#174194" stroke-linecap="round" stroke-linejoin="round" stroke-miterlimit="20" stroke-width=".72" d="M4.15 3.53h2.79"/></g><g><path fill="none" stroke="#174194" stroke-linecap="round" stroke-linejoin="round" stroke-miterlimit="20" stroke-width=".72" d="M8.636 3.533a.763.763 0 1 1-1.526 0 .763.763 0 0 1 1.526 0z"/></g><g><path fill="none" stroke="#174194" stroke-linecap="round" stroke-linejoin="round" stroke-miterlimit="20" stroke-width=".72" d="M8.73 3.53h2.79"/></g><g><path fill="none" stroke="#174194" stroke-linecap="round" stroke-linejoin="round" stroke-miterlimit="20" stroke-width=".72" d="M4.15 13.07h2.79"/></g><g><path fill="none" stroke="#174194" stroke-linecap="round" stroke-linejoin="round" stroke-miterlimit="20" stroke-width=".72" d="M8.636 13.073a.763.763 0 1 1-1.526 0 .763.763 0 0 1 1.526 0z"/></g><g><path fill="none" stroke="#174194" stroke-linecap="round" stroke-linejoin="round" stroke-miterlimit="20" stroke-width=".72" d="M8.73 13.07h2.79"/></g><g><path fill="none" stroke="#174194" stroke-linecap="round" stroke-linejoin="round" stroke-miterlimit="20" stroke-width=".72" d="M7.87 4.43v7.631"/></g></g></g></svg>