<svg xmlns="http://www.w3.org/2000/svg" width="18" height="16" viewBox="0 0 18 16"><g><g><g><path fill="none" stroke="#174194" stroke-linecap="round" stroke-linejoin="round" stroke-miterlimit="20" stroke-width=".7" d="M1 15.183v0h7.237v0V8.83v0H1v0z"/></g><g><path fill="none" stroke="#174194" stroke-linecap="round" stroke-linejoin="round" stroke-miterlimit="20" stroke-width=".7" d="M1.45 4.126h6.338"/></g><g><path fill="none" stroke="#174194" stroke-linecap="round" stroke-linejoin="round" stroke-miterlimit="20" stroke-width=".7" d="M6.06 2.968v0V1.24v0H3.177v1.728L1.45 4.121v2.304h6.337v0-2.304 0z"/></g><g><path fill="none" stroke="#174194" stroke-linecap="round" stroke-linejoin="round" stroke-miterlimit="20" stroke-width=".7" d="M9.778 1h6.554c.27 0 .488.219.488.489v13.203c0 .27-.218.489-.488.489H9.778a.488.488 0 0 1-.488-.489V1.49c0-.27.218-.489.488-.489z"/></g><g><path fill="none" stroke="#174194" stroke-linecap="round" stroke-linejoin="round" stroke-miterlimit="20" stroke-width=".7" d="M16.82 6.426H9.29"/></g><g><path fill="#174194" d="M2.52 9.47a.58.58 0 1 1 .001 1.161.58.58 0 0 1 0-1.161"/></g><g><path fill="none" stroke="#174194" stroke-linecap="round" stroke-linejoin="round" stroke-miterlimit="20" stroke-width=".7" d="M8.088 11.316H1.27"/></g><g><path fill="#174194" d="M2.53 11.99a.58.58 0 1 1 0 1.161.58.58 0 0 1 0-1.161"/></g><g><path fill="#174194" d="M10.8 4.59a.58.58 0 1 1 .001 1.161.58.58 0 0 1 0-1.161"/></g><g><path fill="#174194" d="M10.81 7.11a.58.58 0 1 1 0 1.162.58.58 0 0 1 0-1.162"/></g></g></g></svg>