<svg xmlns="http://www.w3.org/2000/svg" width="17" height="14" viewBox="0 0 17 14"><g><g><g><path fill="none" stroke="#174194" stroke-linecap="round" stroke-linejoin="round" stroke-miterlimit="20" stroke-width=".75" d="M12.877 3.68a.837.837 0 1 1 0 1.673.837.837 0 0 1 0-1.673z"/></g><g><path fill="none" stroke="#174194" stroke-linecap="round" stroke-linejoin="round" stroke-miterlimit="20" stroke-width=".75" d="M12.877 7.36a.837.837 0 1 1 0 1.673.837.837 0 0 1 0-1.673z"/></g><g><path fill="none" stroke="#174194" stroke-linecap="round" stroke-linejoin="round" stroke-miterlimit="20" stroke-width=".75" d="M3.01 9.034v0h7.027v0V3.68v0H3.01v0z"/></g><g><path fill="none" stroke="#174194" stroke-linecap="round" stroke-linejoin="round" stroke-miterlimit="20" stroke-width=".75" d="M14.72 11.708H2.003c-.555 0-1.004-.45-1.004-1.004v-8.7C1 1.45 1.45 1 2.004 1h12.715c.555 0 1.004.45 1.004 1.004v8.7c0 .554-.45 1.004-1.004 1.004z"/></g><g><path fill="none" stroke="#174194" stroke-linecap="round" stroke-linejoin="round" stroke-miterlimit="20" stroke-width=".75" d="M3.01 11.71v1.338"/></g><g><path fill="none" stroke="#174194" stroke-linecap="round" stroke-linejoin="round" stroke-miterlimit="20" stroke-width=".75" d="M13.71 11.71v1.338"/></g></g></g></svg>