<svg xmlns="http://www.w3.org/2000/svg" width="11" height="14" viewBox="0 0 11 14"><g><g><path fill="#174194" d="M7.604 14c-.927 0-1.782-.377-2.594-1.119-1.144-1.05-2.087-2.762-2.855-4.298C1.415 7.114.98 6.05.706 5.12A6.081 6.081 0 0 1 .43 3.383c0-.473.073-.903.232-1.28C.98 1.32 1.59.7 2.518.308l.477-.202A1.33 1.33 0 0 1 3.547 0c.478 0 .956.242 1.188.7l.956 1.914c.087.161.13.336.13.513 0 .43-.289.901-.767 1.104l-.653.282c-.087.042-.189.15-.189.271 0 .054 0 .094.029.147l2.262 4.515c.043.095.159.175.304.175.044 0 .102 0 .145-.027l.652-.282c.175-.082.363-.109.55-.109.464 0 .986.243 1.204.702l.957 1.911c.087.163.115.338.115.514 0 .457-.275.903-.753 1.104l-.464.203c-.55.242-1.087.363-1.609.363"/></g></g></svg>