<svg xmlns="http://www.w3.org/2000/svg" width="15" height="15" viewBox="0 0 15 15"><g><g><g><g><path fill="#174194" d="M11.44 10.04a2.773 2.773 0 0 1 2.978.74.91.91 0 0 1-1.343 1.226.945.945 0 0 0-1.25-.128l-.174.16a.94.94 0 0 0 .02 1.248.91.91 0 0 1-1.344 1.225 2.774 2.774 0 0 1-.463-3.034l-1.03-1.129-.128.117a.733.733 0 0 1-.986-1.082l.128-.117-.427-.468-.128.117a.733.733 0 0 1-.987-1.082l.128-.117-.426-.467-.128.117a.732.732 0 0 1-.987-1.082l.128-.117-.235-.259a3.098 3.098 0 0 1-3.416-.774 3.072 3.072 0 0 1 .2-4.335 3.072 3.072 0 0 1 4.333.2 3.098 3.098 0 0 1 .458 3.473l.235.258.34-.31a.733.733 0 0 1 .987 1.083l-.34.31.427.467.339-.31a.733.733 0 0 1 .987 1.082l-.34.31.427.467.34-.31a.733.733 0 0 1 .986 1.083l-.34.31zm2.51 1.577a.303.303 0 0 0 .02-.428 2.158 2.158 0 0 0-2.488-.512.302.302 0 0 1-.349-.072L9.961 9.32l-.678.619 1.172 1.285c.088.097.104.24.04.353a2.157 2.157 0 0 0 .28 2.525.303.303 0 0 0 .448-.408 1.55 1.55 0 0 1-.013-2.073l.015-.015.216-.198.009-.007a1.557 1.557 0 0 1 2.073.196.303.303 0 0 0 .427.02zM8.128 9.831a.126.126 0 0 0-.008.178.126.126 0 0 0 .178.008l2.042-1.863a.125.125 0 1 0-.169-.186L8.49 9.502l-.008.009-.01.007zM6.715 8.28a.126.126 0 1 0 .17.186l2.052-1.863a.125.125 0 0 0 .008-.177.127.127 0 0 0-.178-.008zm-1.413-1.55a.126.126 0 0 0 .17.186l2.042-1.863a.126.126 0 1 0-.17-.185zm-.574-1.46a.307.307 0 0 1 .358.066l.384.42.678-.618-.383-.42a.305.305 0 0 1-.035-.363c.573-.93.46-2.143-.275-2.948a2.464 2.464 0 0 0-3.477-.16 2.465 2.465 0 0 0-.16 3.477 2.472 2.472 0 0 0 2.91.545zm1.729 1.57l.422.466.673-.618-.423-.468zM7.87 8.39l.422.467.673-.619-.423-.467z"/></g></g><g><path fill="#292929" d="M5.048 1.652a2.003 2.003 0 0 1-.13 2.827 2.003 2.003 0 0 1-2.826-.13 2.003 2.003 0 0 1 .13-2.828 2.003 2.003 0 0 1 2.826.13m-.555 2.361a1.372 1.372 0 0 0 .09-1.935 1.372 1.372 0 0 0-1.936-.09 1.371 1.371 0 0 0 1.846 2.025"/></g></g></g></svg>