<svg xmlns="http://www.w3.org/2000/svg" width="12" height="16" viewBox="0 0 12 16"><g><g><g><path fill="none" stroke="#174194" stroke-linecap="round" stroke-linejoin="round" stroke-miterlimit="20" stroke-width=".72" d="M1.14 9.585C1.14 6.469 6.227 1 6.227 1v0s5.088 5.469 5.088 8.585c0 3.243-2.608 5.087-5.088 5.087S1.14 12.828 1.14 9.585z"/></g><g><path fill="none" stroke="#174194" stroke-linecap="round" stroke-linejoin="round" stroke-miterlimit="20" stroke-width=".72" d="M3.73 9.234A2.522 2.522 0 0 1 6.234 6.73c1.002 0 1.836.567 2.237 1.402"/></g><g><path fill="none" stroke="#174194" stroke-linecap="round" stroke-linejoin="round" stroke-miterlimit="20" stroke-width=".72" d="M8.73 9.3a2.522 2.522 0 0 1-2.503 2.504 2.455 2.455 0 0 1-2.237-1.402"/></g><g><path fill="none" stroke="#174194" stroke-linecap="round" stroke-linejoin="round" stroke-miterlimit="20" stroke-width=".72" d="M8.562 6.63v0l-.1 1.503v0L6.96 8.066v0"/></g><g><path fill="none" stroke="#174194" stroke-linecap="round" stroke-linejoin="round" stroke-miterlimit="20" stroke-width=".72" d="M3.96 11.902v0l.034-1.502v0h1.502v0"/></g></g></g></svg>