<svg xmlns="http://www.w3.org/2000/svg" width="15" height="15" viewBox="0 0 15 15"><g><g><g><path fill="none" stroke="#174194" stroke-linecap="round" stroke-linejoin="round" stroke-miterlimit="20" stroke-width=".7" d="M10.938 8.54v0l1.998 1.752A1.867 1.867 0 1 1 10.365 13c-.024-.023-.044-.047-.065-.07l-2.17-2.365v0"/></g><g><path fill="none" stroke="#174194" stroke-linecap="round" stroke-linejoin="round" stroke-miterlimit="20" stroke-width=".7" d="M6.678 5.749v0L4.485 3.556v0-.93 0L2.86 1v0L1 2.859v0l1.626 1.626v0h.93v0L5.7 6.631v0"/></g><g><path fill="none" stroke="#174194" stroke-linecap="round" stroke-linejoin="round" stroke-miterlimit="20" stroke-width=".7" d="M13.402 3.205l-1.714 1.714v0L9.626 2.858v0l1.713-1.714a3.517 3.517 0 0 0-1.223-.137 3.23 3.23 0 0 0-2.951 2.951c-.027.413.019.828.136 1.225l-6.003 5.421a.904.904 0 0 0-.065 1.276h0c.01.012.021.024.032.034L2.63 13.28a.905.905 0 0 0 1.278-.002l.03-.032 5.425-6.004c.397.118.812.164 1.225.137a3.23 3.23 0 0 0 2.951-2.95 3.522 3.522 0 0 0-.138-1.225z"/></g></g></g></svg>