<svg xmlns="http://www.w3.org/2000/svg" width="21" height="12" viewBox="0 0 21 12"><g><g><g><path fill="none" stroke="#174194" stroke-linecap="round" stroke-linejoin="round" stroke-miterlimit="20" stroke-width=".7" d="M2.315 2.467a.658.658 0 1 1-1.315 0 .658.658 0 0 1 1.315 0z"/></g><g><path fill="none" stroke="#174194" stroke-linecap="round" stroke-linejoin="round" stroke-miterlimit="20" stroke-width=".7" d="M2.548 2.657v0L8.072 6.26v0l11.627-1.08v0L13.1 1v0L1.66 1.812v0"/></g><g><path fill="none" stroke="#174194" stroke-linecap="round" stroke-linejoin="round" stroke-miterlimit="20" stroke-width=".7" d="M8.07 7.494v2.561l1.38.893v0l1.001-1.037v0l1.377.778v0l.951-.995v0l1.298.764v0l.994-.98v0l1.297.793v0l1.01-1.052v0l1.268.836v0l1.052-1.13v0V5.25v0"/></g></g></g></svg>