<svg xmlns="http://www.w3.org/2000/svg" width="16" height="16" viewBox="0 0 16 16"><g><g><g><path fill="none" stroke="#174194" stroke-linecap="round" stroke-linejoin="round" stroke-miterlimit="20" stroke-width=".75" d="M2.51 13.047v0h10.54v0V6.02v0H2.51v0z"/></g><g><path fill="none" stroke="#174194" stroke-linecap="round" stroke-linejoin="round" stroke-miterlimit="20" stroke-width=".75" d="M10.037 8.03H5.52"/></g><g><path fill="none" stroke="#174194" stroke-linecap="round" stroke-linejoin="round" stroke-miterlimit="20" stroke-width=".75" d="M5.02 2.76H2.51"/></g><g><path fill="none" stroke="#174194" stroke-linecap="round" stroke-linejoin="round" stroke-miterlimit="20" stroke-width=".75" d="M1 4.51h13.552"/></g><g><path fill="none" stroke="#174194" stroke-linecap="round" stroke-linejoin="round" stroke-miterlimit="20" stroke-width=".75" d="M1.753 1h12.046c.416 0 .753.337.753.753v12.046a.753.753 0 0 1-.753.753H1.753A.753.753 0 0 1 1 13.799V1.753C1 1.337 1.337 1 1.753 1z"/></g><g><path fill="#174194" d="M12.547 2.13a.627.627 0 1 1 0 1.255.627.627 0 0 1 0-1.255"/></g><g><path fill="#174194" d="M10.537 2.13a.627.627 0 1 1 0 1.255.627.627 0 0 1 0-1.255"/></g></g></g></svg>