<svg xmlns="http://www.w3.org/2000/svg" width="17" height="16" viewBox="0 0 17 16"><g><g><g><path fill="none" stroke="#174194" stroke-linecap="round" stroke-linejoin="round" stroke-miterlimit="20" stroke-width=".72" d="M1.29 15.308v0h14.308v0V1v0H1.29v0z"/></g><g><path fill="none" stroke="#174194" stroke-linecap="round" stroke-linejoin="round" stroke-miterlimit="20" stroke-width=".72" d="M1.29 2.91h14.308"/></g><g><path fill="none" stroke="#174194" stroke-linecap="round" stroke-linejoin="round" stroke-miterlimit="20" stroke-width=".72" d="M8.443 4.82a4.293 4.293 0 1 1 0 8.585 4.293 4.293 0 0 1 0-8.585z"/></g><g><path fill="none" stroke="#174194" stroke-linecap="round" stroke-linejoin="round" stroke-miterlimit="20" stroke-width=".72" d="M10.583 9.42c-.43 0-.787-.167-1.074-.43a1.554 1.554 0 0 1-2.146 0 1.554 1.554 0 0 1-2.003.12 3.084 3.084 0 0 0 3.076 3.075 3.084 3.084 0 0 0 3.077-3.076c-.263.191-.573.31-.93.31z"/></g></g></g></svg>