<svg xmlns="http://www.w3.org/2000/svg" width="16" height="16" viewBox="0 0 16 16"><g><g><g><path fill="none" stroke="#174194" stroke-linecap="round" stroke-linejoin="round" stroke-miterlimit="20" stroke-width=".72" d="M8.15 6.249V2.91"/></g><g><path fill="none" stroke="#174194" stroke-linecap="round" stroke-linejoin="round" stroke-miterlimit="20" stroke-width=".72" d="M6.335 7.562L3.16 6.53"/></g><g><path fill="none" stroke="#174194" stroke-linecap="round" stroke-linejoin="round" stroke-miterlimit="20" stroke-width=".72" d="M7.032 9.7L5.07 12.401"/></g><g><path fill="none" stroke="#174194" stroke-linecap="round" stroke-linejoin="round" stroke-miterlimit="20" stroke-width=".72" d="M9.28 9.7l1.962 2.701"/></g><g><path fill="none" stroke="#174194" stroke-linecap="round" stroke-linejoin="round" stroke-miterlimit="20" stroke-width=".72" d="M9.97 7.562l3.175-1.032"/></g><g><path fill="none" stroke="#174194" stroke-linecap="round" stroke-linejoin="round" stroke-miterlimit="20" stroke-width=".72" d="M8.154 1a7.154 7.154 0 1 1 0 14.309A7.154 7.154 0 0 1 8.154 1z"/></g><g><path fill="none" stroke="#174194" stroke-linecap="round" stroke-linejoin="round" stroke-miterlimit="20" stroke-width=".72" d="M8.156 2.91a5.246 5.246 0 1 1 0 10.493 5.246 5.246 0 0 1 0-10.493z"/></g><g><path fill="none" stroke="#174194" stroke-linecap="round" stroke-linejoin="round" stroke-miterlimit="20" stroke-width=".72" d="M8.158 6.25a1.908 1.908 0 1 1 0 3.815 1.908 1.908 0 0 1 0-3.815z"/></g></g></g></svg>