<svg xmlns="http://www.w3.org/2000/svg" width="15" height="14" viewBox="0 0 15 14"><g><g><g><path fill="none" stroke="#174194" stroke-linecap="round" stroke-linejoin="round" stroke-miterlimit="20" stroke-width=".72" d="M8.387 7.847c.542-.728 1.188-1.791 1.188-3.031A4.25 4.25 0 0 0 7.19 1v6.2"/></g><g><path fill="none" stroke="#174194" stroke-linecap="round" stroke-linejoin="round" stroke-miterlimit="20" stroke-width=".72" d="M5.912 7.988c-.902-.105-2.145-.132-3.22.488A4.25 4.25 0 0 0 .58 12.448l5.369-3.1v0"/></g><g><path fill="none" stroke="#174194" stroke-linecap="round" stroke-linejoin="round" stroke-miterlimit="20" stroke-width=".72" d="M7.27 10.064c.36.833.957 1.923 2.032 2.544a4.25 4.25 0 0 0 4.497-.158l-5.37-3.1v0"/></g><g><path fill="none" stroke="#174194" stroke-linecap="round" stroke-linejoin="round" stroke-miterlimit="20" stroke-width=".72" d="M7.19 7.2a1.43 1.43 0 1 1 0 2.862 1.43 1.43 0 0 1 0-2.862z"/></g></g></g></svg>